<svg width="204" height="106" fill="none" xmlns="http://www.w3.org/2000/svg"><g opacity=".5"><path d="M1.17 92.48h-.056C.5 92.48 0 92.983 0 93.595v10.579c0 .612.501 1.113 1.114 1.113h.055c.613 0 1.114-.501 1.114-1.113V93.594c.055-.612-.446-1.113-1.114-1.113z" fill="url(#paint0_linear_70_558)"/><path d="M20.6 92.48c-.612 0-1.113.502-1.113 1.114v7.516l-6.514-8.184a1.162 1.162 0 00-.891-.445h-.112c-.612 0-1.113.5-1.113 1.113v10.579c0 .612.501 1.113 1.114 1.113.612 0 1.113-.501 1.113-1.113v-7.461l6.514 8.184c.223.279.557.446.891.446h.111c.613 0 1.114-.501 1.114-1.114V93.65c.056-.668-.445-1.17-1.114-1.17z" fill="url(#paint1_linear_70_558)"/><path d="M37.916 92.48h-8.463c-.613 0-1.114.502-1.114 1.114 0 .612.502 1.114 1.114 1.114h3.062v9.465c0 .612.501 1.113 1.114 1.113h.111c.612 0 1.114-.501 1.114-1.113v-9.466h3.062c.612 0 1.113-.5 1.113-1.113 0-.612-.5-1.113-1.113-1.113z" fill="url(#paint2_linear_70_558)"/><path d="M52.28 103.115h-4.343v-3.118h3.675c.612 0 1.113-.501 1.113-1.114 0-.612-.5-1.113-1.113-1.113h-3.675v-3.007h4.176c.612 0 1.113-.5 1.113-1.113s-.5-1.114-1.113-1.114h-5.4c-.613 0-1.114.501-1.114 1.114v10.578c0 .613.5 1.114 1.113 1.114h5.568c.612 0 1.113-.501 1.113-1.114 0-.612-.5-1.113-1.113-1.113z" fill="url(#paint3_linear_70_558)"/><path d="M66.98 100.053a3.513 3.513 0 001.447-1.114c.556-.668.89-1.503.89-2.505 0-1.838-.835-4.01-4.676-4.01h-2.506c-.612 0-1.113.502-1.113 1.114v10.579c0 .612.5 1.113 1.113 1.113h.056c.612 0 1.113-.501 1.113-1.113v-3.563h1.281l3.34 4.342c.223.279.557.446.892.446.946 0 1.503-1.114.89-1.837l-2.728-3.452zm-.78-2.283c-.446.334-1.002.5-1.615.5h-1.336v-3.562h1.225c2.115 0 2.394.946 2.394 1.781 0 .501-.223.947-.668 1.28z" fill="url(#paint4_linear_70_558)"/><path d="M87.19 92.48c-.612 0-1.113.502-1.113 1.114v7.516l-6.514-8.184a1.162 1.162 0 00-.891-.445h-.112c-.612 0-1.113.5-1.113 1.113v10.579c0 .612.5 1.113 1.113 1.113s1.114-.501 1.114-1.113v-7.461l6.514 8.184c.223.279.557.446.89.446h.112c.613 0 1.114-.501 1.114-1.114V93.65c0-.668-.501-1.17-1.114-1.17z" fill="url(#paint5_linear_70_558)"/><path d="M102.39 93.093a1.1 1.1 0 00-1.002-.668h-.334a1.1 1.1 0 00-1.003.668l-4.565 10.69c-.334.724.223 1.559 1.002 1.559a1.1 1.1 0 001.002-.668l1.225-2.951h4.9l1.28 2.951c.167.389.557.668 1.002.668h.112c.779 0 1.336-.835 1.002-1.559l-4.621-10.69zm-2.784 6.403l1.503-3.564 1.504 3.564h-3.007z" fill="url(#paint6_linear_70_558)"/><path d="M120.819 92.48h-8.463c-.613 0-1.114.502-1.114 1.114 0 .612.501 1.114 1.114 1.114h3.062v9.465c0 .612.501 1.113 1.113 1.113h.112c.612 0 1.113-.501 1.113-1.113v-9.466h3.063c.612 0 1.113-.5 1.113-1.113 0-.612-.501-1.113-1.113-1.113z" fill="url(#paint7_linear_70_558)"/><path d="M130.062 92.48h-.056c-.613 0-1.114.502-1.114 1.114v10.579c0 .612.501 1.113 1.114 1.113h.056c.612 0 1.113-.501 1.113-1.113V93.594c0-.612-.501-1.113-1.113-1.113z" fill="url(#paint8_linear_70_558)"/><path d="M145.317 92.314c-1.893 0-3.452.668-4.677 1.893-1.225 1.28-1.838 2.839-1.838 4.676 0 1.893.613 3.508 1.838 4.733 1.28 1.225 2.839 1.837 4.677 1.837 1.837 0 3.452-.612 4.677-1.893 1.224-1.28 1.893-2.839 1.893-4.732 0-1.893-.613-3.508-1.893-4.733-1.225-1.17-2.784-1.781-4.677-1.781zm3.006 9.743c-.779.835-1.726 1.225-2.951 1.225-1.169 0-2.115-.39-2.951-1.225-.835-.835-1.224-1.893-1.224-3.118 0-1.28.389-2.283 1.169-3.118.779-.835 1.781-1.225 2.951-1.225 1.169 0 2.115.39 2.951 1.225.779.835 1.169 1.838 1.169 3.118 0 1.225-.334 2.283-1.114 3.118z" fill="url(#paint9_linear_70_558)"/><path d="M168.924 92.48c-.613 0-1.114.502-1.114 1.114v7.516l-6.514-8.184a1.163 1.163 0 00-.891-.445h-.167c-.612 0-1.113.5-1.113 1.113v10.634c0 .613.501 1.114 1.113 1.114.613 0 1.114-.501 1.114-1.114v-7.46l6.514 8.184c.223.278.557.446.891.446h.167c.612 0 1.113-.502 1.113-1.114V93.65c0-.668-.501-1.17-1.113-1.17z" fill="url(#paint10_linear_70_558)"/><path d="M184.123 93.093a1.099 1.099 0 00-1.002-.668h-.334a1.1 1.1 0 00-1.002.668l-4.565 10.69c-.335.724.222 1.559 1.002 1.559.445 0 .835-.279 1.002-.668l1.225-2.951h4.899l1.281 2.951c.167.389.557.668 1.002.668h.111c.78 0 1.337-.835 1.003-1.559l-4.622-10.69zm-2.783 6.403l1.503-3.564 1.503 3.564h-3.006z" fill="url(#paint11_linear_70_558)"/><path d="M202.887 103.115h-4.788V93.65c0-.613-.501-1.114-1.114-1.114h-.111c-.613 0-1.114.501-1.114 1.114v10.578c0 .613.501 1.114 1.114 1.114h5.957c.613 0 1.114-.501 1.114-1.114.055-.612-.446-1.113-1.058-1.113z" fill="url(#paint12_linear_70_558)"/><path d="M171.262 35.856a3.113 3.113 0 003.118-3.118V3.118A3.113 3.113 0 00171.262 0a3.113 3.113 0 00-3.118 3.118v29.62a3.113 3.113 0 003.118 3.118z" fill="url(#paint13_linear_70_558)"/><path d="M200.882 0a3.113 3.113 0 00-3.118 3.118v29.62c0 14.587-11.859 26.502-26.502 26.502-14.643 0-26.502-11.915-26.502-26.502V3.118A3.113 3.113 0 00141.642 0a3.113 3.113 0 00-3.118 3.118v29.62c0 18.04 14.699 32.738 32.738 32.738S204 50.777 204 32.738V3.118A3.113 3.113 0 00200.882 0z" fill="url(#paint14_linear_70_558)"/><path d="M118.981 36.301h-13.084a3.113 3.113 0 00-3.118 3.118 3.113 3.113 0 003.118 3.118h7.127c-1.336 4.176-5.178 7.182-9.744 7.182-5.679 0-10.244-4.62-10.244-10.3 0-5.679 4.621-10.3 10.244-10.3A3.113 3.113 0 00106.398 26a3.113 3.113 0 00-3.118-3.118c-1.948 0-3.563-1.615-3.563-3.619 0-2.004 1.615-3.619 3.563-3.619a3.113 3.113 0 003.118-3.118 3.113 3.113 0 00-3.118-3.118c-5.4 0-9.799 4.399-9.799 9.855 0 2.171.724 4.12 1.838 5.735-5.067 2.84-8.519 8.184-8.519 14.42 0 9.131 7.405 16.592 16.48 16.592 8.018 0 14.699-5.846 16.147-13.53 1.503-.222 2.672-1.447 2.672-3.062 0-1.67-1.392-3.118-3.118-3.118z" fill="url(#paint15_linear_70_558)"/><path d="M3.118 65.476c1.722 0 3.118-1.42 3.118-3.173 0-1.753-1.396-3.174-3.118-3.174S0 60.549 0 62.303c0 1.752 1.396 3.173 3.118 3.173z" fill="url(#paint16_linear_70_558)"/><path d="M65.476 17.928C65.476 8.018 57.46 0 47.66 0H3.117A3.113 3.113 0 000 3.118v29.62a3.113 3.113 0 003.118 3.118H47.659c6.403 0 11.581 5.234 11.581 11.636 0 6.403-5.178 11.637-11.58 11.637H16.202a3.113 3.113 0 00-3.118 3.118 3.113 3.113 0 003.118 3.118h31.457c9.8 0 17.817-8.073 17.817-17.928 0-6.125-3.062-11.581-7.795-14.81 4.733-3.118 7.795-8.575 7.795-14.699zM47.66 29.564H6.236V6.236H47.66c6.402 0 11.58 5.233 11.58 11.636s-5.178 11.692-11.58 11.692z" fill="url(#paint17_linear_70_558)"/></g><defs><linearGradient id="paint0_linear_70_558" x1="1.143" y1="92.481" x2="1.143" y2="105.286" gradientUnits="userSpaceOnUse"><stop stop-color="#D9D9D9"/><stop offset="1" stop-color="#9C9C9C"/></linearGradient><linearGradient id="paint1_linear_70_558" x1="16.288" y1="92.481" x2="16.288" y2="105.342" gradientUnits="userSpaceOnUse"><stop stop-color="#D9D9D9"/><stop offset="1" stop-color="#9C9C9C"/></linearGradient><linearGradient id="paint2_linear_70_558" x1="33.684" y1="92.481" x2="33.684" y2="105.286" gradientUnits="userSpaceOnUse"><stop stop-color="#D9D9D9"/><stop offset="1" stop-color="#9C9C9C"/></linearGradient><linearGradient id="paint3_linear_70_558" x1="49.496" y1="92.536" x2="49.496" y2="105.342" gradientUnits="userSpaceOnUse"><stop stop-color="#D9D9D9"/><stop offset="1" stop-color="#9C9C9C"/></linearGradient><linearGradient id="paint4_linear_70_558" x1="65.493" y1="92.425" x2="65.493" y2="105.342" gradientUnits="userSpaceOnUse"><stop stop-color="#D9D9D9"/><stop offset="1" stop-color="#9C9C9C"/></linearGradient><linearGradient id="paint5_linear_70_558" x1="82.875" y1="92.481" x2="82.875" y2="105.342" gradientUnits="userSpaceOnUse"><stop stop-color="#D9D9D9"/><stop offset="1" stop-color="#9C9C9C"/></linearGradient><linearGradient id="paint6_linear_70_558" x1="101.248" y1="92.425" x2="101.248" y2="105.342" gradientUnits="userSpaceOnUse"><stop stop-color="#D9D9D9"/><stop offset="1" stop-color="#9C9C9C"/></linearGradient><linearGradient id="paint7_linear_70_558" x1="116.587" y1="92.481" x2="116.587" y2="105.286" gradientUnits="userSpaceOnUse"><stop stop-color="#D9D9D9"/><stop offset="1" stop-color="#9C9C9C"/></linearGradient><linearGradient id="paint8_linear_70_558" x1="130.034" y1="92.481" x2="130.034" y2="105.286" gradientUnits="userSpaceOnUse"><stop stop-color="#D9D9D9"/><stop offset="1" stop-color="#9C9C9C"/></linearGradient><linearGradient id="paint9_linear_70_558" x1="145.345" y1="92.314" x2="145.345" y2="105.453" gradientUnits="userSpaceOnUse"><stop stop-color="#D9D9D9"/><stop offset="1" stop-color="#9C9C9C"/></linearGradient><linearGradient id="paint10_linear_70_558" x1="164.581" y1="92.481" x2="164.581" y2="105.398" gradientUnits="userSpaceOnUse"><stop stop-color="#D9D9D9"/><stop offset="1" stop-color="#9C9C9C"/></linearGradient><linearGradient id="paint11_linear_70_558" x1="182.982" y1="92.425" x2="182.982" y2="105.342" gradientUnits="userSpaceOnUse"><stop stop-color="#D9D9D9"/><stop offset="1" stop-color="#9C9C9C"/></linearGradient><linearGradient id="paint12_linear_70_558" x1="199.855" y1="92.536" x2="199.855" y2="105.342" gradientUnits="userSpaceOnUse"><stop stop-color="#D9D9D9"/><stop offset="1" stop-color="#9C9C9C"/></linearGradient><linearGradient id="paint13_linear_70_558" x1="171.262" y1="0" x2="171.262" y2="35.856" gradientUnits="userSpaceOnUse"><stop stop-color="#D9D9D9"/><stop offset="1" stop-color="#9C9C9C"/></linearGradient><linearGradient id="paint14_linear_70_558" x1="171.262" y1="0" x2="171.262" y2="65.476" gradientUnits="userSpaceOnUse"><stop stop-color="#D9D9D9"/><stop offset="1" stop-color="#9C9C9C"/></linearGradient><linearGradient id="paint15_linear_70_558" x1="104.45" y1="9.409" x2="104.45" y2="56.011" gradientUnits="userSpaceOnUse"><stop stop-color="#D9D9D9"/><stop offset="1" stop-color="#9C9C9C"/></linearGradient><linearGradient id="paint16_linear_70_558" x1="3.118" y1="59.129" x2="3.118" y2="65.476" gradientUnits="userSpaceOnUse"><stop stop-color="#D9D9D9"/><stop offset="1" stop-color="#9C9C9C"/></linearGradient><linearGradient id="paint17_linear_70_558" x1="32.738" y1="0" x2="32.738" y2="65.365" gradientUnits="userSpaceOnUse"><stop stop-color="#D9D9D9"/><stop offset="1" stop-color="#9C9C9C"/></linearGradient></defs></svg>