<svg width="109" height="35" fill="none" xmlns="http://www.w3.org/2000/svg"><path d="M91.507 19.158c.923 0 1.666-.743 1.666-1.666V1.666C93.173.744 92.43 0 91.507 0c-.922 0-1.665.744-1.665 1.666v15.826c0 .923.743 1.666 1.665 1.666z" fill="#D9D9D9"/><path d="M107.334 0c-.922 0-1.666.744-1.666 1.666v15.826c0 7.795-6.337 14.16-14.16 14.16-7.825 0-14.161-6.365-14.161-14.16V1.666C77.347.744 76.603 0 75.681 0c-.922 0-1.666.744-1.666 1.666v15.826c0 9.639 7.854 17.493 17.492 17.493 9.639 0 17.493-7.854 17.493-17.493V1.666C109 .744 108.256 0 107.334 0zM63.573 19.396h-6.99c-.923 0-1.667.744-1.667 1.666 0 .922.744 1.666 1.666 1.666h3.808c-.714 2.231-2.767 3.838-5.206 3.838-3.034 0-5.474-2.47-5.474-5.504 0-3.034 2.47-5.504 5.474-5.504.922 0 1.666-.743 1.666-1.665 0-.923-.744-1.666-1.666-1.666-1.041 0-1.904-.863-1.904-1.934s.863-1.934 1.904-1.934c.922 0 1.666-.744 1.666-1.666 0-.922-.744-1.666-1.666-1.666-2.886 0-5.236 2.35-5.236 5.266 0 1.16.387 2.201.982 3.064-2.707 1.517-4.552 4.373-4.552 7.705 0 4.879 3.957 8.865 8.806 8.865 4.284 0 7.854-3.123 8.627-7.229.804-.119 1.428-.773 1.428-1.636 0-.892-.743-1.666-1.666-1.666zM1.666 34.985c.92 0 1.666-.76 1.666-1.696 0-.937-.746-1.696-1.666-1.696-.92 0-1.666.76-1.666 1.696 0 .936.746 1.696 1.666 1.696zM34.985 9.58c0-5.296-4.284-9.58-9.52-9.58H1.666C.744 0 0 .744 0 1.666v15.826c0 .923.744 1.666 1.666 1.666h23.8c3.42 0 6.187 2.797 6.187 6.218s-2.767 6.217-6.188 6.217H8.657c-.922 0-1.666.744-1.666 1.666 0 .922.744 1.666 1.666 1.666h16.808c5.236 0 9.52-4.313 9.52-9.579a9.563 9.563 0 00-4.165-7.913c2.529-1.666 4.165-4.582 4.165-7.854zm-9.52 6.217H3.332V3.332H25.466c3.42 0 6.187 2.796 6.187 6.217s-2.767 6.248-6.188 6.248z" fill="#D9D9D9"/></svg>