<svg width="326" height="47" fill="none" xmlns="http://www.w3.org/2000/svg"><g clip-path="url(#clip0_90_496)" fill="#FFFEFE"><path d="M101.244 39.215h-.032a.687.687 0 00-.682.681v6.283c0 .371.31.681.682.681h.032c.372 0 .682-.31.682-.68v-6.284c0-.402-.31-.68-.682-.68zM112.779 39.215c-.372 0-.682.31-.682.65v4.457l-3.845-4.86a.663.663 0 00-.527-.247h-.062a.688.688 0 00-.683.681v6.283c0 .371.311.65.652.65.372 0 .651-.31.651-.65v-4.426l3.845 4.828c.124.155.31.248.527.248h.062c.372 0 .683-.31.683-.68v-6.284c.062-.371-.249-.65-.621-.65zM123.043 39.215h-5.023a.654.654 0 00-.651.65c0 .372.31.65.651.65h1.829v5.633c0 .371.311.65.652.65h.062c.372 0 .651-.31.651-.65v-5.633h1.829c.373 0 .652-.31.652-.65a.635.635 0 00-.652-.65zM131.571 45.498h-2.573v-1.857h2.17c.372 0 .651-.31.651-.65s-.31-.65-.651-.65h-2.17v-1.764h2.48c.372 0 .652-.31.652-.65a.655.655 0 00-.652-.65h-3.194a.687.687 0 00-.682.681v6.283c0 .371.31.68.682.68h3.287c.372 0 .652-.309.652-.65 0-.494-.28-.773-.652-.773zM140.285 43.703a2.56 2.56 0 00.868-.65c.342-.402.528-.897.528-1.485 0-1.084-.497-2.384-2.791-2.384h-1.489c-.372 0-.651.31-.651.681v6.283c0 .371.31.681.682.681h.031c.372 0 .682-.31.682-.68v-2.167h.776l1.984 2.569c.124.154.31.247.528.247.558 0 .868-.65.527-1.083l-1.675-2.012zm-.465-1.362c-.279.217-.589.31-.961.31h-.776v-2.136h.745c1.24 0 1.395.557 1.395 1.053 0 .309-.124.557-.403.773zM152.286 39.215a.654.654 0 00-.651.65v4.457l-3.846-4.86a.663.663 0 00-.527-.247h-.062a.687.687 0 00-.682.681v6.283c0 .371.31.65.651.65.372 0 .651-.31.651-.65v-4.426l3.846 4.828c.124.155.31.248.527.248h.093c.372 0 .682-.31.682-.68v-6.284a.703.703 0 00-.682-.65zM161.279 39.556c-.093-.248-.341-.403-.62-.403h-.217c-.279 0-.496.155-.62.403l-2.729 6.345a.666.666 0 00.62.928c.279 0 .496-.155.62-.402l.744-1.733h2.884l.744 1.733a.65.65 0 00.621.402h.062c.465 0 .806-.495.62-.928l-2.729-6.345zm-1.613 3.776l.869-2.105.899 2.105h-1.768zM172.225 39.215h-5.023a.654.654 0 00-.651.65c0 .372.31.65.651.65h1.829v5.633c0 .371.31.65.652.65h.062c.372 0 .651-.31.651-.65v-5.633h1.829c.372 0 .652-.31.652-.65.031-.371-.28-.65-.652-.65zM177.714 39.215h-.031a.687.687 0 00-.682.681v6.283c0 .371.31.681.682.681h.031c.372 0 .682-.31.682-.68v-6.284c0-.402-.31-.68-.682-.68zM186.769 39.092c-1.116 0-2.047.37-2.791 1.145-.744.742-1.085 1.671-1.085 2.785 0 1.145.372 2.074 1.116 2.817.744.742 1.675 1.083 2.791 1.083 1.116 0 2.047-.371 2.791-1.114.744-.743 1.116-1.703 1.116-2.786 0-1.145-.372-2.073-1.116-2.816-.775-.743-1.706-1.114-2.822-1.114zm1.768 5.787c-.466.495-1.024.712-1.768.712-.713 0-1.271-.248-1.737-.743-.465-.495-.713-1.114-.713-1.857 0-.773.217-1.362.713-1.857.466-.495 1.055-.712 1.768-.712.713 0 1.271.248 1.737.743.465.495.713 1.083.713 1.857 0 .743-.248 1.362-.713 1.857zM200.786 39.215c-.372 0-.683.31-.683.65v4.457l-3.845-4.86a.663.663 0 00-.527-.247h-.093a.654.654 0 00-.651.65v6.283c0 .371.31.65.651.65s.651-.31.651-.65v-4.426l3.845 4.828a.666.666 0 00.528.248h.093c.372 0 .651-.31.651-.65v-6.283c.031-.371-.279-.65-.62-.65zM209.779 39.556c-.093-.248-.342-.403-.621-.403h-.186c-.279 0-.496.155-.62.403l-2.729 6.345a.666.666 0 00.62.928c.279 0 .497-.155.621-.402l.744-1.733h2.884l.744 1.733c.093.247.341.402.62.402h.062c.465 0 .806-.495.62-.928l-2.759-6.345zm-1.613 3.776l.868-2.105.9 2.105h-1.768zM220.942 45.498h-2.822v-5.633c0-.371-.31-.65-.651-.65h-.062a.654.654 0 00-.651.65v6.283c0 .371.31.681.682.681h3.535c.372 0 .651-.31.651-.65-.031-.402-.31-.68-.682-.68zM47.069 17.364h-9.055c-4.465 0-8.094-3.62-8.094-8.077V.249a.965.965 0 00-.96-.96.965.965 0 00-.962.96v9.038c0 5.509 4.496 9.966 9.985 9.966h9.055a.965.965 0 00.961-.96c.031-.495-.403-.928-.93-.928zM102.484 1.24h9.055a.965.965 0 00.961-.96.965.965 0 00-.961-.96h-9.055c-5.52 0-9.985 4.488-9.985 9.967 0 5.509 4.496 9.966 9.985 9.966h9.055a.965.965 0 00.961-.96.965.965 0 00-.961-.96h-9.055c-4.465 0-8.094-3.62-8.094-8.077 0-4.395 3.629-8.017 8.094-8.017zM70.264-.68c-5.52 0-9.985 4.488-9.985 9.967 0 5.509 4.497 9.966 9.985 9.966a.965.965 0 00.962-.96.965.965 0 00-.962-.96c-4.465 0-8.093-3.62-8.093-8.077s3.628-8.078 8.093-8.078c4.466 0 8.094 3.62 8.094 8.078v9.006c0 .526.434.96.962.96a.965.965 0 00.96-.96V9.256C80.25 3.808 75.785-.68 70.265-.68zM144.688.28a.965.965 0 00-.961-.96.965.965 0 00-.961.96c0 4.457-3.628 8.078-8.094 8.078h-8.093V.28a.966.966 0 00-.962-.96.965.965 0 00-.961.96v18.044c0 .526.434.96.961.96a.966.966 0 00.962-.96v-8.078h8.093c4.466 0 8.094 3.621 8.094 8.078 0 .526.434.96.961.96a.965.965 0 00.961-.96c0-3.993-2.356-7.428-5.767-9.007 3.411-1.609 5.767-5.044 5.767-9.037zM205.437 10.246a.965.965 0 00.962-.96V.25a.965.965 0 00-.962-.96.965.965 0 00-.961.96v9.038c0 .526.434.959.961.959z"/><path d="M214.492-.68a.965.965 0 00-.961.96v9.037c0 4.457-3.628 8.078-8.094 8.078-4.465 0-8.093-3.62-8.093-8.078V.28a.966.966 0 00-.962-.96.965.965 0 00-.961.96v9.037c0 5.51 4.496 9.966 9.985 9.966 5.489 0 9.985-4.487 9.985-9.966V.28a.895.895 0 00-.899-.96zM260.852-.68a.965.965 0 00-.961.96v18.044c0 .526.434.96.961.96a.965.965 0 00.961-.96V.28c-.031-.526-.434-.96-.961-.96zM246.712-.68a.965.965 0 00-.962.96v8.078h-16.187V.28a.965.965 0 00-.961-.96.966.966 0 00-.962.96v18.044c0 .526.435.96.962.96a.965.965 0 00.961-.96v-8.078h16.187v8.078c0 .526.434.96.962.96a.965.965 0 00.961-.96V.28c-.031-.526-.434-.96-.961-.96zM293.072-.68h-18.079a.966.966 0 00-.962.96c0 .526.435.96.962.96h8.093v17.084c0 .526.435.96.962.96a.965.965 0 00.961-.96V1.239h8.094a.965.965 0 00.961-.959c0-.526-.465-.96-.992-.96zM325.291 17.364a.965.965 0 00-.961.96c0 .526.434.96.961.96a.965.965 0 00.961-.96.965.965 0 00-.961-.96zM307.212 1.24h18.079a.965.965 0 00.961-.96.965.965 0 00-.961-.96h-18.079a.965.965 0 00-.961.96c0 .526.434.96.961.96zM321.787 17.395h-14.575a.965.965 0 00-.961.96c0 .526.434.96.961.96h14.575a.965.965 0 00.961-.96.945.945 0 00-.961-.96zM325.291 8.327h-18.079a.965.965 0 00-.961.96c0 .526.434.959.961.959h18.079a.965.965 0 00.961-.96.965.965 0 00-.961-.959zM174.52 10.4h-4a.965.965 0 00-.961.96c0 .526.434.96.961.96h2.171c-.404 1.269-1.582 2.197-2.977 2.197-1.737 0-3.132-1.424-3.132-3.157s1.395-3.157 3.132-3.157a.965.965 0 00.961-.96.965.965 0 00-.961-.959c-.59 0-1.086-.495-1.086-1.083 0-.619.496-1.083 1.086-1.083a.965.965 0 00.961-.96.965.965 0 00-.961-.96c-1.644 0-2.977 1.363-2.977 3.003 0 .65.217 1.27.558 1.733-1.551.867-2.605 2.507-2.605 4.395 0 2.786 2.264 5.045 5.024 5.045 2.449 0 4.496-1.795 4.93-4.116a.912.912 0 00.806-.929.932.932 0 00-.93-.928zM15.81 4.798c0-3.002-2.449-5.478-5.426-5.478H-3.229a.965.965 0 00-.962.96v9.006c0 .526.435.96.962.96h13.613a3.537 3.537 0 013.535 3.559c0 1.98-1.581 3.56-3.535 3.56H.771a.965.965 0 00-.961.959c0 .526.434.959.961.959h9.613c3.008 0 5.427-2.445 5.427-5.478a5.51 5.51 0 00-2.357-4.519c1.427-.96 2.357-2.63 2.357-4.488zm-5.426 3.56H-2.267V1.27h12.651a3.537 3.537 0 013.535 3.56 3.55 3.55 0 01-3.535 3.528z"/></g><defs><clipPath id="clip0_90_496"><path fill="#fff" d="M0 0h326v47H0z"/></clipPath></defs></svg>