<svg width="80" height="42" fill="none" xmlns="http://www.w3.org/2000/svg"><path d="M.459 36.267H.437a.438.438 0 00-.437.436v4.149c0 .24.197.437.437.437h.022c.24 0 .436-.197.436-.437v-4.149c.022-.24-.174-.436-.436-.436zM8.079 36.267a.438.438 0 00-.437.436v2.948l-2.555-3.21a.456.456 0 00-.35-.174h-.043a.438.438 0 00-.436.436v4.149c0 .24.196.437.436.437s.437-.197.437-.437v-2.926l2.555 3.21c.087.109.218.174.349.174h.044c.24 0 .436-.196.436-.436v-4.149c.022-.262-.174-.458-.436-.458zM14.869 36.267H11.55a.438.438 0 00-.437.436c0 .24.197.437.437.437h1.201v3.712c0 .24.197.437.437.437h.043c.24 0 .437-.197.437-.437V37.14h1.201c.24 0 .437-.196.437-.437a.438.438 0 00-.437-.436zM20.502 40.437h-1.703v-1.223h1.44c.241 0 .438-.196.438-.436a.438.438 0 00-.437-.437h-1.441v-1.179h1.637c.24 0 .437-.197.437-.437a.438.438 0 00-.437-.436H18.32a.438.438 0 00-.437.436v4.149c0 .24.196.436.436.436h2.184c.24 0 .437-.196.437-.436a.438.438 0 00-.437-.437zM26.266 39.236c.219-.087.415-.24.568-.436.218-.262.35-.59.35-.983 0-.72-.328-1.572-1.835-1.572h-.982a.438.438 0 00-.437.437v4.148c0 .24.197.437.437.437h.022c.24 0 .436-.197.436-.437v-1.397h.503l1.31 1.703c.087.109.218.174.349.174.371 0 .59-.436.35-.72l-1.07-1.354zm-.305-.895a1.04 1.04 0 01-.633.197h-.524V37.14h.48c.83 0 .939.371.939.699a.612.612 0 01-.262.502zM34.192 36.267a.438.438 0 00-.436.436v2.948l-2.555-3.21a.456.456 0 00-.35-.174h-.043a.438.438 0 00-.437.436v4.149c0 .24.197.437.437.437s.437-.197.437-.437v-2.926l2.554 3.21c.088.109.219.174.35.174h.043c.24 0 .437-.196.437-.436v-4.149a.443.443 0 00-.437-.458zM40.153 36.507a.432.432 0 00-.393-.262h-.131a.431.431 0 00-.393.262l-1.79 4.192a.436.436 0 00.393.611c.174 0 .327-.109.393-.262l.48-1.157h1.921l.502 1.157a.431.431 0 00.394.262h.043a.436.436 0 00.393-.61l-1.812-4.193zm-1.092 2.51l.59-1.397.59 1.398h-1.18zM47.38 36.267H44.06a.438.438 0 00-.437.436c0 .24.197.437.437.437h1.2v3.712c0 .24.197.437.438.437h.043c.24 0 .437-.197.437-.437V37.14h1.2c.24 0 .437-.196.437-.437a.438.438 0 00-.436-.436zM51.004 36.267h-.021a.438.438 0 00-.437.436v4.149c0 .24.196.437.437.437h.021c.24 0 .437-.197.437-.437v-4.149a.438.438 0 00-.437-.436zM56.987 36.201c-.742 0-1.354.262-1.834.742-.48.503-.72 1.114-.72 1.835 0 .742.24 1.375.72 1.855.502.48 1.113.721 1.834.721.72 0 1.354-.24 1.834-.742.48-.503.742-1.114.742-1.856 0-.743-.24-1.376-.742-1.856-.48-.459-1.092-.699-1.834-.699zm1.179 3.821c-.306.328-.677.48-1.157.48a1.55 1.55 0 01-1.157-.48c-.328-.327-.48-.742-.48-1.223 0-.502.152-.895.458-1.222.305-.328.699-.48 1.157-.48.459 0 .83.152 1.157.48.306.327.459.72.459 1.222 0 .48-.131.896-.437 1.223zM66.245 36.267a.438.438 0 00-.437.436v2.948l-2.555-3.21a.456.456 0 00-.349-.174h-.066a.438.438 0 00-.436.436v4.17c0 .24.196.437.437.437.24 0 .436-.196.436-.436v-2.926l2.555 3.21c.087.109.218.174.35.174h.065c.24 0 .436-.196.436-.436v-4.17a.443.443 0 00-.436-.46zM72.205 36.507a.431.431 0 00-.393-.262h-.13a.431.431 0 00-.394.262l-1.79 4.192a.436.436 0 00.393.611c.174 0 .327-.109.393-.262l.48-1.157h1.922l.502 1.157a.431.431 0 00.393.262h.043a.436.436 0 00.393-.61l-1.812-4.193zm-1.091 2.51l.589-1.397.59 1.398h-1.18zM79.563 40.437h-1.877v-3.712a.438.438 0 00-.437-.436h-.044a.438.438 0 00-.436.436v4.149c0 .24.196.436.436.436h2.337c.24 0 .436-.196.436-.436a.407.407 0 00-.415-.437zM67.161 14.061a1.22 1.22 0 001.223-1.223V1.223A1.22 1.22 0 0067.161 0a1.22 1.22 0 00-1.222 1.223v11.615a1.22 1.22 0 001.222 1.223z" fill="#fff"/><path d="M78.777 0a1.22 1.22 0 00-1.222 1.223v11.615c0 5.721-4.651 10.394-10.394 10.394-5.742 0-10.393-4.673-10.393-10.394V1.223A1.22 1.22 0 0055.546 0a1.22 1.22 0 00-1.223 1.223v11.615c0 7.075 5.764 12.839 12.838 12.839C74.236 25.677 80 19.913 80 12.838V1.223A1.22 1.22 0 0078.777 0zM46.66 14.236h-5.132a1.22 1.22 0 00-1.223 1.222 1.22 1.22 0 001.223 1.223h2.795c-.524 1.638-2.03 2.817-3.821 2.817-2.227 0-4.018-1.813-4.018-4.04 0-2.227 1.813-4.039 4.018-4.039a1.22 1.22 0 001.223-1.223 1.22 1.22 0 00-1.223-1.222 1.412 1.412 0 01-1.397-1.42c0-.786.633-1.419 1.397-1.419a1.22 1.22 0 001.223-1.222 1.22 1.22 0 00-1.223-1.223c-2.118 0-3.843 1.725-3.843 3.864 0 .852.284 1.616.72 2.25-1.986 1.113-3.34 3.209-3.34 5.654 0 3.581 2.904 6.507 6.463 6.507 3.144 0 5.764-2.293 6.332-5.306a1.205 1.205 0 001.048-1.2c0-.656-.546-1.223-1.223-1.223zM1.223 25.677c.675 0 1.222-.557 1.222-1.245 0-.687-.547-1.244-1.222-1.244-.676 0-1.223.557-1.223 1.244 0 .688.547 1.245 1.223 1.245zM25.677 7.03c0-3.886-3.144-7.03-6.987-7.03H1.223A1.22 1.22 0 000 1.223v11.615a1.22 1.22 0 001.223 1.223H18.69c2.51 0 4.541 2.053 4.541 4.564 0 2.51-2.03 4.563-4.541 4.563H6.354A1.22 1.22 0 005.13 24.41a1.22 1.22 0 001.223 1.222H18.69c3.843 0 6.987-3.166 6.987-7.03 0-2.402-1.201-4.542-3.057-5.808 1.856-1.223 3.057-3.363 3.057-5.764zm-6.987 4.564H2.445V2.445H18.69c2.51 0 4.541 2.053 4.541 4.564 0 2.51-2.03 4.585-4.541 4.585z" fill="#fff"/></svg>