<svg width="59" height="59" fill="none" xmlns="http://www.w3.org/2000/svg"><g clip-path="url(#clip0_149_576)"><path d="M12.584 58.42a1.968 1.968 0 010-2.798l10.242-10.239a1.974 1.974 0 013.407 1.37 1.968 1.968 0 01-.61 1.428L15.384 58.422a1.967 1.967 0 01-2.797 0l-.003-.002zm20.835-9.686a1.966 1.966 0 010-2.798l7.52-7.512H20.043L9.723 48.737a1.978 1.978 0 11-2.798-2.798l7.523-7.523h-.332a14.273 14.273 0 010-28.546h.165-.008c.221 0 .443.017.661.027 3.354-5.949 9.63-9.9 16.83-9.9A19.249 19.249 0 0151.018 19.25v.037a9.72 9.72 0 017.395 9.422 9.7 9.7 0 01-9.701 9.701h-2.173l-10.32 10.32a1.966 1.966 0 01-2.798 0l-.002.005zM3.955 24.141a10.325 10.325 0 0010.316 10.318h34.426a5.75 5.75 0 10-3.72-10.139l.008-.007a1.981 1.981 0 01-2.569-3.016l.003-.003a9.587 9.587 0 014.552-2.141l.06-.01a15.29 15.29 0 00-27.92-8.484l-.034.052a14.26 14.26 0 014.13 2.303l-.027-.022a1.98 1.98 0 11-2.478 3.088l.002.002a10.153 10.153 0 00-6.406-2.259h-.027.002A10.325 10.325 0 003.951 24.141h.004z" fill="#56A9BF"/></g><defs><clipPath id="clip0_149_576"><path fill="#fff" d="M0 0h59v59H0z"/></clipPath></defs></svg>