<svg width="41" height="41" viewBox="0 0 41 41" fill="none" xmlns="http://www.w3.org/2000/svg">
<path d="M13.3253 3.4165H27.6753C33.142 3.4165 37.5837 7.85817 37.5837 13.3248V27.6748C37.5837 30.3027 36.5397 32.8229 34.6816 34.6811C32.8234 36.5393 30.3032 37.5832 27.6753 37.5832H13.3253C7.85866 37.5832 3.41699 33.1415 3.41699 27.6748V13.3248C3.41699 10.697 4.4609 8.17676 6.31908 6.31859C8.17725 4.46041 10.6975 3.4165 13.3253 3.4165ZM12.9837 6.83317C11.3526 6.83317 9.7883 7.48112 8.63495 8.63446C7.4816 9.78781 6.83366 11.3521 6.83366 12.9832V28.0165C6.83366 31.4161 9.58408 34.1665 12.9837 34.1665H28.017C29.6481 34.1665 31.2124 33.5186 32.3657 32.3652C33.5191 31.2119 34.167 29.6476 34.167 28.0165V12.9832C34.167 9.58359 31.4166 6.83317 28.017 6.83317H12.9837ZM29.4691 9.39567C30.0354 9.39567 30.5786 9.62065 30.979 10.0211C31.3795 10.4216 31.6045 10.9647 31.6045 11.5311C31.6045 12.0974 31.3795 12.6406 30.979 13.0411C30.5786 13.4415 30.0354 13.6665 29.4691 13.6665C28.9027 13.6665 28.3596 13.4415 27.9591 13.0411C27.5586 12.6406 27.3337 12.0974 27.3337 11.5311C27.3337 10.9647 27.5586 10.4216 27.9591 10.0211C28.3596 9.62065 28.9027 9.39567 29.4691 9.39567ZM20.5003 11.9582C22.7657 11.9582 24.9383 12.8581 26.5402 14.46C28.1421 16.0618 29.042 18.2344 29.042 20.4998C29.042 22.7652 28.1421 24.9378 26.5402 26.5397C24.9383 28.1416 22.7657 29.0415 20.5003 29.0415C18.2349 29.0415 16.0623 28.1416 14.4605 26.5397C12.8586 24.9378 11.9587 22.7652 11.9587 20.4998C11.9587 18.2344 12.8586 16.0618 14.4605 14.46C16.0623 12.8581 18.2349 11.9582 20.5003 11.9582ZM20.5003 15.3748C19.1411 15.3748 17.8375 15.9148 16.8764 16.8759C15.9153 17.837 15.3753 19.1406 15.3753 20.4998C15.3753 21.8591 15.9153 23.1626 16.8764 24.1238C17.8375 25.0849 19.1411 25.6248 20.5003 25.6248C21.8596 25.6248 23.1631 25.0849 24.1242 24.1238C25.0854 23.1626 25.6253 21.8591 25.6253 20.4998C25.6253 19.1406 25.0854 17.837 24.1242 16.8759C23.1631 15.9148 21.8596 15.3748 20.5003 15.3748Z" fill="#FFFEFE"/>
</svg>
