<svg width="41" height="41" viewBox="0 0 41 41" fill="none" xmlns="http://www.w3.org/2000/svg">
<path d="M20.5003 3.4165C11.0703 3.4165 3.41699 11.0698 3.41699 20.4998C3.41699 29.9298 11.0703 37.5832 20.5003 37.5832C29.9303 37.5832 37.5837 29.9298 37.5837 20.4998C37.5837 11.0698 29.9303 3.4165 20.5003 3.4165ZM28.427 15.0332C28.1707 17.7323 27.0603 24.2923 26.4966 27.3161C26.2574 28.5973 25.7791 29.0244 25.3349 29.0757C24.3441 29.1611 23.5924 28.4265 22.6357 27.7944C21.1324 26.8036 20.2782 26.1886 18.8262 25.2319C17.1349 24.1215 18.2282 23.5065 19.202 22.5157C19.4582 22.2594 23.8316 18.279 23.917 17.9203C23.9289 17.8659 23.9273 17.8095 23.9124 17.7559C23.8975 17.7023 23.8698 17.6532 23.8316 17.6128C23.7291 17.5273 23.5924 17.5615 23.4728 17.5786C23.3191 17.6128 20.9274 19.2015 16.2637 22.3448C15.5803 22.8061 14.9653 23.0453 14.4187 23.0282C13.8037 23.0111 12.642 22.6865 11.7707 22.3961C10.6945 22.0544 9.85741 21.8665 9.92574 21.2686C9.95991 20.9611 10.387 20.6536 11.1899 20.329C16.1782 18.1594 19.4924 16.7244 21.1495 16.0411C25.8987 14.0594 26.8724 13.7178 27.5216 13.7178C27.6582 13.7178 27.9828 13.7519 28.1878 13.9228C28.3587 14.0594 28.4099 14.2473 28.427 14.384C28.4099 14.4865 28.4441 14.794 28.427 15.0332Z" fill="#FFFEFE"/>
</svg>
