<svg width="41" height="41" viewBox="0 0 41 41" fill="none" xmlns="http://www.w3.org/2000/svg">
<path d="M7.2775 7.2775C5.125 9.4505 5.125 12.9253 5.125 19.885V21.115C5.125 28.0645 5.125 31.5392 7.2775 33.7225C9.4505 35.875 12.9253 35.875 19.885 35.875H21.115C28.0645 35.875 31.5392 35.875 33.7225 33.7225C35.875 31.5495 35.875 28.0747 35.875 21.115V19.885C35.875 12.9355 35.875 9.46075 33.7225 7.2775C31.5495 5.125 28.0747 5.125 21.115 5.125H19.885C12.9355 5.125 9.46075 5.125 7.2775 7.2775ZM10.3115 14.4832H13.8375C13.9503 20.3462 16.5333 22.8267 18.5833 23.3393V14.4832H21.894V19.5365C23.9132 19.3212 26.0453 17.015 26.7628 14.473H30.0632C29.7939 15.7888 29.2563 17.0349 28.4838 18.1336C27.7114 19.2323 26.7207 20.16 25.5738 20.8588C26.854 21.4957 27.9847 22.397 28.8911 23.503C29.7975 24.6091 30.459 25.8948 30.832 27.2752H27.1933C26.4143 24.846 24.4668 22.96 21.894 22.7038V27.2752H21.484C14.473 27.2752 10.4755 22.4783 10.3115 14.4832Z" fill="#FFFEFE"/>
</svg>
