<svg width="204" height="106" viewBox="0 0 204 106" fill="none" xmlns="http://www.w3.org/2000/svg">
<g opacity="0.5">
<path d="M1.16922 92.4805H1.11354C0.501091 92.4805 0 92.9816 0 93.594V104.173C0 104.785 0.501091 105.286 1.11354 105.286H1.16922C1.78166 105.286 2.28275 104.785 2.28275 104.173V93.594C2.33843 92.9816 1.83734 92.4805 1.16922 92.4805Z" fill="url(#paint0_linear_70_558)"/>
<path d="M20.6004 92.4805C19.988 92.4805 19.4869 92.9816 19.4869 93.594V101.11L12.9727 92.9259C12.75 92.6475 12.4159 92.4805 12.0818 92.4805H11.9705C11.358 92.4805 10.8569 92.9816 10.8569 93.594V104.173C10.8569 104.785 11.358 105.286 11.9705 105.286C12.5829 105.286 13.084 104.785 13.084 104.173V96.7119L19.5982 104.896C19.8209 105.175 20.155 105.342 20.489 105.342H20.6004C21.2128 105.342 21.7139 104.841 21.7139 104.228V93.6497C21.7696 92.9816 21.2685 92.4805 20.6004 92.4805Z" fill="url(#paint1_linear_70_558)"/>
<path d="M37.9158 92.4805H29.4529C28.8405 92.4805 28.3394 92.9816 28.3394 93.594C28.3394 94.2064 28.8405 94.7075 29.4529 94.7075H32.5151V104.173C32.5151 104.785 33.0162 105.286 33.6287 105.286H33.74C34.3525 105.286 34.8536 104.785 34.8536 104.173V94.7075H37.9158C38.5282 94.7075 39.0293 94.2064 39.0293 93.594C39.0293 92.9816 38.5282 92.4805 37.9158 92.4805Z" fill="url(#paint2_linear_70_558)"/>
<path d="M52.2799 103.115H47.9371V99.9968H51.6117C52.2242 99.9968 52.7253 99.4958 52.7253 98.8833C52.7253 98.2709 52.2242 97.7698 51.6117 97.7698H47.9371V94.7632H52.1128C52.7253 94.7632 53.2264 94.2621 53.2264 93.6497C53.2264 93.0372 52.7253 92.5361 52.1128 92.5361H46.7122C46.0997 92.5361 45.5986 93.0372 45.5986 93.6497V104.228C45.5986 104.841 46.0997 105.342 46.7122 105.342H52.2799C52.8923 105.342 53.3934 104.841 53.3934 104.228C53.3934 103.616 52.8923 103.115 52.2799 103.115Z" fill="url(#paint3_linear_70_558)"/>
<path d="M66.9792 100.053C67.5359 99.8298 68.037 99.4401 68.4268 98.939C68.9835 98.2709 69.3176 97.4357 69.3176 96.4335C69.3176 94.5962 68.4824 92.4248 64.6407 92.4248C64.418 92.4248 63.0818 92.4248 62.1353 92.4248C61.5228 92.4248 61.0217 92.9259 61.0217 93.5383V104.117C61.0217 104.729 61.5228 105.23 62.1353 105.23H62.1909C62.8034 105.23 63.3045 104.729 63.3045 104.117V100.554H64.585L67.9257 104.896C68.1484 105.175 68.4824 105.342 68.8165 105.342C69.763 105.342 70.3198 104.228 69.7073 103.505L66.9792 100.053ZM66.1997 97.7698C65.7543 98.1038 65.1975 98.2709 64.585 98.2709H63.2488V94.7076C63.9726 94.7076 64.418 94.7076 64.4737 94.7076C66.5894 94.7076 66.8678 95.6541 66.8678 96.4892C66.8678 96.9903 66.6451 97.4357 66.1997 97.7698Z" fill="url(#paint4_linear_70_558)"/>
<path d="M87.1902 92.4805C86.5778 92.4805 86.0767 92.9816 86.0767 93.594V101.11L79.5625 92.9259C79.3398 92.6475 79.0057 92.4805 78.6717 92.4805H78.5603C77.9479 92.4805 77.4468 92.9816 77.4468 93.594V104.173C77.4468 104.785 77.9479 105.286 78.5603 105.286C79.1728 105.286 79.6739 104.785 79.6739 104.173V96.7119L86.1881 104.896C86.4108 105.175 86.7448 105.342 87.0789 105.342H87.1902C87.8027 105.342 88.3038 104.841 88.3038 104.228V93.6497C88.3038 92.9816 87.8027 92.4805 87.1902 92.4805Z" fill="url(#paint5_linear_70_558)"/>
<path d="M102.39 93.0929C102.223 92.7032 101.833 92.4248 101.388 92.4248H101.054C100.608 92.4248 100.218 92.7032 100.051 93.0929L95.4859 103.783C95.1518 104.507 95.7086 105.342 96.4881 105.342C96.9335 105.342 97.3232 105.063 97.4902 104.674L98.7151 101.723H103.615L104.895 104.674C105.062 105.063 105.452 105.342 105.897 105.342H106.009C106.788 105.342 107.345 104.507 107.011 103.783L102.39 93.0929ZM99.606 99.4958L101.109 95.9324L102.613 99.4958H99.606Z" fill="url(#paint6_linear_70_558)"/>
<path d="M120.819 92.4805H112.356C111.743 92.4805 111.242 92.9816 111.242 93.594C111.242 94.2064 111.743 94.7075 112.356 94.7075H115.418V104.173C115.418 104.785 115.919 105.286 116.531 105.286H116.643C117.255 105.286 117.756 104.785 117.756 104.173V94.7075H120.819C121.431 94.7075 121.932 94.2064 121.932 93.594C121.932 92.9816 121.431 92.4805 120.819 92.4805Z" fill="url(#paint7_linear_70_558)"/>
<path d="M130.062 92.4805H130.006C129.393 92.4805 128.892 92.9816 128.892 93.594V104.173C128.892 104.785 129.393 105.286 130.006 105.286H130.062C130.674 105.286 131.175 104.785 131.175 104.173V93.594C131.175 92.9816 130.674 92.4805 130.062 92.4805Z" fill="url(#paint8_linear_70_558)"/>
<path d="M145.317 92.3135C143.424 92.3135 141.865 92.9816 140.64 94.2065C139.415 95.4871 138.802 97.046 138.802 98.8834C138.802 100.776 139.415 102.391 140.64 103.616C141.92 104.841 143.479 105.453 145.317 105.453C147.154 105.453 148.769 104.841 149.994 103.56C151.218 102.28 151.887 100.721 151.887 98.8277C151.887 96.9347 151.274 95.32 149.994 94.0951C148.769 92.9259 147.21 92.3135 145.317 92.3135ZM148.323 102.057C147.544 102.892 146.597 103.282 145.372 103.282C144.203 103.282 143.257 102.892 142.421 102.057C141.586 101.222 141.197 100.164 141.197 98.939C141.197 97.6585 141.586 96.6563 142.366 95.8211C143.145 94.986 144.147 94.5962 145.317 94.5962C146.486 94.5962 147.432 94.986 148.268 95.8211C149.047 96.6563 149.437 97.6585 149.437 98.939C149.437 100.164 149.103 101.222 148.323 102.057Z" fill="url(#paint9_linear_70_558)"/>
<path d="M168.924 92.4805C168.311 92.4805 167.81 92.9816 167.81 93.594V101.11L161.296 92.9259C161.073 92.6475 160.739 92.4805 160.405 92.4805H160.238C159.626 92.4805 159.125 92.9816 159.125 93.594V104.228C159.125 104.841 159.626 105.342 160.238 105.342C160.851 105.342 161.352 104.841 161.352 104.228V96.7676L167.866 104.952C168.089 105.23 168.423 105.398 168.757 105.398H168.924C169.536 105.398 170.037 104.896 170.037 104.284V93.6497C170.037 92.9816 169.536 92.4805 168.924 92.4805Z" fill="url(#paint10_linear_70_558)"/>
<path d="M184.123 93.0929C183.956 92.7032 183.567 92.4248 183.121 92.4248H182.787C182.342 92.4248 181.952 92.7032 181.785 93.0929L177.22 103.783C176.885 104.507 177.442 105.342 178.222 105.342C178.667 105.342 179.057 105.063 179.224 104.674L180.449 101.723H185.348L186.629 104.674C186.796 105.063 187.186 105.342 187.631 105.342H187.742C188.522 105.342 189.079 104.507 188.745 103.783L184.123 93.0929ZM181.34 99.4958L182.843 95.9324L184.346 99.4958H181.34Z" fill="url(#paint11_linear_70_558)"/>
<path d="M202.887 103.115H198.099V93.6497C198.099 93.0372 197.598 92.5361 196.985 92.5361H196.874C196.261 92.5361 195.76 93.0372 195.76 93.6497V104.228C195.76 104.841 196.261 105.342 196.874 105.342H202.831C203.444 105.342 203.945 104.841 203.945 104.228C204 103.616 203.499 103.115 202.887 103.115Z" fill="url(#paint12_linear_70_558)"/>
<path d="M171.262 35.856C172.988 35.856 174.38 34.464 174.38 32.738V3.11791C174.38 1.39192 172.988 0 171.262 0C169.536 0 168.144 1.39192 168.144 3.11791V32.738C168.144 34.464 169.536 35.856 171.262 35.856Z" fill="url(#paint13_linear_70_558)"/>
<path d="M200.882 0C199.156 0 197.764 1.39192 197.764 3.11791V32.738C197.764 47.3254 185.905 59.2403 171.262 59.2403C156.619 59.2403 144.76 47.3254 144.76 32.738V3.11791C144.76 1.39192 143.368 0 141.642 0C139.916 0 138.524 1.39192 138.524 3.11791V32.738C138.524 50.7774 153.223 65.4761 171.262 65.4761C189.301 65.4761 204 50.7774 204 32.738V3.11791C204 1.39192 202.608 0 200.882 0Z" fill="url(#paint14_linear_70_558)"/>
<path d="M118.981 36.3011H105.897C104.171 36.3011 102.779 37.6931 102.779 39.419C102.779 41.145 104.171 42.537 105.897 42.537H113.024C111.688 46.7127 107.846 49.7193 103.28 49.7193C97.6014 49.7193 93.0359 45.0981 93.0359 39.419C93.0359 33.74 97.6571 29.1188 103.28 29.1188C105.006 29.1188 106.398 27.7269 106.398 26.0009C106.398 24.2749 105.006 22.883 103.28 22.883C101.332 22.883 99.7171 21.2684 99.7171 19.264C99.7171 17.2596 101.332 15.645 103.28 15.645C105.006 15.645 106.398 14.2531 106.398 12.5271C106.398 10.8011 105.006 9.40918 103.28 9.40918C97.8798 9.40918 93.4813 13.8077 93.4813 19.264C93.4813 21.4354 94.2051 23.3841 95.3186 24.9987C90.252 27.8382 86.8 33.1832 86.8 39.419C86.8 48.5501 94.2051 56.0108 103.28 56.0108C111.298 56.0108 117.979 50.1647 119.427 42.4813C120.93 42.2586 122.099 41.0337 122.099 39.419C122.099 37.7487 120.707 36.3011 118.981 36.3011Z" fill="url(#paint15_linear_70_558)"/>
<path d="M3.11791 65.4761C4.83988 65.4761 6.23582 64.0552 6.23582 62.3025C6.23582 60.5498 4.83988 59.1289 3.11791 59.1289C1.39594 59.1289 0 60.5498 0 62.3025C0 64.0552 1.39594 65.4761 3.11791 65.4761Z" fill="url(#paint16_linear_70_558)"/>
<path d="M65.4761 17.928C65.4761 8.01748 57.4586 0 47.6595 0H47.4924H44.5415H3.11791C1.39193 0 0 1.39192 0 3.11791V32.738C0 34.464 1.39193 35.856 3.11791 35.856H44.5415H45.154H47.6595C54.0623 35.856 59.2403 41.0896 59.2403 47.4924C59.2403 53.8953 54.0623 59.1289 47.6595 59.1289H44.5415H16.202C14.476 59.1289 13.0841 60.5208 13.0841 62.2468C13.0841 63.9728 14.476 65.3647 16.202 65.3647H44.5415H47.6595C57.4586 65.3647 65.4761 57.2916 65.4761 47.4368C65.4761 41.3123 62.4138 35.856 57.6813 32.6267C62.4138 29.5088 65.4761 24.0524 65.4761 17.928ZM47.6595 29.5645H45.154H44.5415H6.23582V6.23582H44.5415H47.4924H47.6595C54.0623 6.23582 59.2403 11.4694 59.2403 17.8723C59.2403 24.2751 54.0623 29.5645 47.6595 29.5645Z" fill="url(#paint17_linear_70_558)"/>
</g>
<defs>
<linearGradient id="paint0_linear_70_558" x1="1.14349" y1="92.4805" x2="1.14349" y2="105.286" gradientUnits="userSpaceOnUse">
<stop stop-color="#D9D9D9"/>
<stop offset="1" stop-color="#9C9C9C"/>
</linearGradient>
<linearGradient id="paint1_linear_70_558" x1="16.2876" y1="92.4805" x2="16.2876" y2="105.342" gradientUnits="userSpaceOnUse">
<stop stop-color="#D9D9D9"/>
<stop offset="1" stop-color="#9C9C9C"/>
</linearGradient>
<linearGradient id="paint2_linear_70_558" x1="33.6843" y1="92.4805" x2="33.6843" y2="105.286" gradientUnits="userSpaceOnUse">
<stop stop-color="#D9D9D9"/>
<stop offset="1" stop-color="#9C9C9C"/>
</linearGradient>
<linearGradient id="paint3_linear_70_558" x1="49.496" y1="92.5361" x2="49.496" y2="105.342" gradientUnits="userSpaceOnUse">
<stop stop-color="#D9D9D9"/>
<stop offset="1" stop-color="#9C9C9C"/>
</linearGradient>
<linearGradient id="paint4_linear_70_558" x1="65.493" y1="92.4248" x2="65.493" y2="105.342" gradientUnits="userSpaceOnUse">
<stop stop-color="#D9D9D9"/>
<stop offset="1" stop-color="#9C9C9C"/>
</linearGradient>
<linearGradient id="paint5_linear_70_558" x1="82.8753" y1="92.4805" x2="82.8753" y2="105.342" gradientUnits="userSpaceOnUse">
<stop stop-color="#D9D9D9"/>
<stop offset="1" stop-color="#9C9C9C"/>
</linearGradient>
<linearGradient id="paint6_linear_70_558" x1="101.248" y1="92.4248" x2="101.248" y2="105.342" gradientUnits="userSpaceOnUse">
<stop stop-color="#D9D9D9"/>
<stop offset="1" stop-color="#9C9C9C"/>
</linearGradient>
<linearGradient id="paint7_linear_70_558" x1="116.587" y1="92.4805" x2="116.587" y2="105.286" gradientUnits="userSpaceOnUse">
<stop stop-color="#D9D9D9"/>
<stop offset="1" stop-color="#9C9C9C"/>
</linearGradient>
<linearGradient id="paint8_linear_70_558" x1="130.034" y1="92.4805" x2="130.034" y2="105.286" gradientUnits="userSpaceOnUse">
<stop stop-color="#D9D9D9"/>
<stop offset="1" stop-color="#9C9C9C"/>
</linearGradient>
<linearGradient id="paint9_linear_70_558" x1="145.345" y1="92.3135" x2="145.345" y2="105.453" gradientUnits="userSpaceOnUse">
<stop stop-color="#D9D9D9"/>
<stop offset="1" stop-color="#9C9C9C"/>
</linearGradient>
<linearGradient id="paint10_linear_70_558" x1="164.581" y1="92.4805" x2="164.581" y2="105.398" gradientUnits="userSpaceOnUse">
<stop stop-color="#D9D9D9"/>
<stop offset="1" stop-color="#9C9C9C"/>
</linearGradient>
<linearGradient id="paint11_linear_70_558" x1="182.982" y1="92.4248" x2="182.982" y2="105.342" gradientUnits="userSpaceOnUse">
<stop stop-color="#D9D9D9"/>
<stop offset="1" stop-color="#9C9C9C"/>
</linearGradient>
<linearGradient id="paint12_linear_70_558" x1="199.855" y1="92.5361" x2="199.855" y2="105.342" gradientUnits="userSpaceOnUse">
<stop stop-color="#D9D9D9"/>
<stop offset="1" stop-color="#9C9C9C"/>
</linearGradient>
<linearGradient id="paint13_linear_70_558" x1="171.262" y1="0" x2="171.262" y2="35.856" gradientUnits="userSpaceOnUse">
<stop stop-color="#D9D9D9"/>
<stop offset="1" stop-color="#9C9C9C"/>
</linearGradient>
<linearGradient id="paint14_linear_70_558" x1="171.262" y1="0" x2="171.262" y2="65.4761" gradientUnits="userSpaceOnUse">
<stop stop-color="#D9D9D9"/>
<stop offset="1" stop-color="#9C9C9C"/>
</linearGradient>
<linearGradient id="paint15_linear_70_558" x1="104.45" y1="9.40918" x2="104.45" y2="56.0108" gradientUnits="userSpaceOnUse">
<stop stop-color="#D9D9D9"/>
<stop offset="1" stop-color="#9C9C9C"/>
</linearGradient>
<linearGradient id="paint16_linear_70_558" x1="3.11791" y1="59.1289" x2="3.11791" y2="65.4761" gradientUnits="userSpaceOnUse">
<stop stop-color="#D9D9D9"/>
<stop offset="1" stop-color="#9C9C9C"/>
</linearGradient>
<linearGradient id="paint17_linear_70_558" x1="32.738" y1="0" x2="32.738" y2="65.3647" gradientUnits="userSpaceOnUse">
<stop stop-color="#D9D9D9"/>
<stop offset="1" stop-color="#9C9C9C"/>
</linearGradient>
</defs>
</svg>
