<svg width="326" height="47" viewBox="0 0 326 47" fill="none" xmlns="http://www.w3.org/2000/svg">
<g clip-path="url(#clip0_90_496)">
<path d="M101.244 39.2153H101.212C100.84 39.2153 100.53 39.5248 100.53 39.8962V46.1791C100.53 46.5505 100.84 46.86 101.212 46.86H101.244C101.616 46.86 101.926 46.5505 101.926 46.1791V39.8962C101.926 39.4939 101.616 39.2153 101.244 39.2153Z" fill="#FFFEFE"/>
<path d="M112.779 39.2153C112.407 39.2153 112.097 39.5248 112.097 39.8653V44.3221L108.252 39.4629C108.128 39.3082 107.942 39.2153 107.725 39.2153H107.663C107.291 39.2153 106.98 39.5248 106.98 39.8962V46.1791C106.98 46.5505 107.291 46.829 107.632 46.829C108.004 46.829 108.283 46.5195 108.283 46.1791V41.7532L112.128 46.5814C112.252 46.7362 112.438 46.829 112.655 46.829H112.717C113.089 46.829 113.4 46.5195 113.4 46.1481V39.8653C113.462 39.4939 113.151 39.2153 112.779 39.2153Z" fill="#FFFEFE"/>
<path d="M123.043 39.2153H118.02C117.648 39.2153 117.369 39.5248 117.369 39.8653C117.369 40.2367 117.679 40.5152 118.02 40.5152H119.849V46.1481C119.849 46.5195 120.16 46.7981 120.501 46.7981H120.563C120.935 46.7981 121.214 46.4886 121.214 46.1481V40.5152H123.043C123.416 40.5152 123.695 40.2057 123.695 39.8653C123.695 39.4939 123.416 39.2153 123.043 39.2153Z" fill="#FFFEFE"/>
<path d="M131.571 45.4982H128.998V43.6412H131.168C131.54 43.6412 131.819 43.3317 131.819 42.9912C131.819 42.6508 131.509 42.3413 131.168 42.3413H128.998V40.5771H131.478C131.85 40.5771 132.13 40.2676 132.13 39.9272C132.13 39.5558 131.819 39.2772 131.478 39.2772H128.284C127.912 39.2772 127.602 39.5867 127.602 39.9581V46.241C127.602 46.6124 127.912 46.9219 128.284 46.9219H131.571C131.943 46.9219 132.223 46.6124 132.223 46.2719C132.223 45.7767 131.943 45.4982 131.571 45.4982Z" fill="#FFFEFE"/>
<path d="M140.285 43.7031C140.626 43.5483 140.905 43.3317 141.153 43.0531C141.495 42.6508 141.681 42.1556 141.681 41.5675C141.681 40.4843 141.184 39.1844 138.89 39.1844C138.735 39.1844 137.959 39.1844 137.401 39.1844C137.029 39.1844 136.75 39.4939 136.75 39.8653V46.1481C136.75 46.5195 137.06 46.829 137.432 46.829H137.463C137.835 46.829 138.145 46.5195 138.145 46.1481V43.9816H138.921L140.905 46.5505C141.029 46.7052 141.215 46.7981 141.433 46.7981C141.991 46.7981 142.301 46.1481 141.96 45.7148L140.285 43.7031ZM139.82 42.3413C139.541 42.5579 139.231 42.6508 138.859 42.6508H138.083V40.5152C138.518 40.5152 138.766 40.5152 138.828 40.5152C140.068 40.5152 140.223 41.0723 140.223 41.5675C140.223 41.877 140.099 42.1246 139.82 42.3413Z" fill="#FFFEFE"/>
<path d="M152.286 39.2153C151.914 39.2153 151.635 39.5248 151.635 39.8653V44.3221L147.789 39.4629C147.665 39.3082 147.479 39.2153 147.262 39.2153H147.2C146.828 39.2153 146.518 39.5248 146.518 39.8962V46.1791C146.518 46.5505 146.828 46.829 147.169 46.829C147.541 46.829 147.82 46.5195 147.82 46.1791V41.7532L151.666 46.5814C151.79 46.7362 151.976 46.829 152.193 46.829H152.286C152.658 46.829 152.968 46.5195 152.968 46.1481V39.8653C152.937 39.4939 152.627 39.2153 152.286 39.2153Z" fill="#FFFEFE"/>
<path d="M161.279 39.5558C161.186 39.3082 160.938 39.1534 160.659 39.1534H160.442C160.163 39.1534 159.946 39.3082 159.822 39.5558L157.093 45.9005C156.907 46.3338 157.217 46.829 157.713 46.829C157.992 46.829 158.209 46.6743 158.333 46.4267L159.077 44.6935H161.961L162.705 46.4267C162.799 46.6743 163.047 46.829 163.326 46.829H163.388C163.853 46.829 164.194 46.3338 164.008 45.9005L161.279 39.5558ZM159.666 43.3317L160.535 41.2271L161.434 43.3317H159.666Z" fill="#FFFEFE"/>
<path d="M172.225 39.2153H167.202C166.83 39.2153 166.551 39.5248 166.551 39.8653C166.551 40.2367 166.861 40.5152 167.202 40.5152H169.031V46.1481C169.031 46.5195 169.341 46.7981 169.683 46.7981H169.745C170.117 46.7981 170.396 46.4886 170.396 46.1481V40.5152H172.225C172.597 40.5152 172.877 40.2057 172.877 39.8653C172.908 39.4939 172.597 39.2153 172.225 39.2153Z" fill="#FFFEFE"/>
<path d="M177.714 39.2153H177.683C177.311 39.2153 177.001 39.5248 177.001 39.8962V46.1791C177.001 46.5505 177.311 46.86 177.683 46.86H177.714C178.086 46.86 178.396 46.5505 178.396 46.1791V39.8962C178.396 39.4939 178.086 39.2153 177.714 39.2153Z" fill="#FFFEFE"/>
<path d="M186.769 39.0915C185.653 39.0915 184.722 39.4629 183.978 40.2367C183.234 40.9795 182.893 41.908 182.893 43.0222C182.893 44.1673 183.265 45.0958 184.009 45.8386C184.753 46.5814 185.684 46.9219 186.8 46.9219C187.916 46.9219 188.847 46.5505 189.591 45.8077C190.335 45.0649 190.707 44.1054 190.707 43.0222C190.707 41.877 190.335 40.9485 189.591 40.2057C188.816 39.4629 187.885 39.0915 186.769 39.0915ZM188.537 44.8792C188.071 45.3744 187.513 45.591 186.769 45.591C186.056 45.591 185.498 45.3434 185.032 44.8482C184.567 44.353 184.319 43.734 184.319 42.9912C184.319 42.2175 184.536 41.6294 185.032 41.1342C185.498 40.639 186.087 40.4224 186.8 40.4224C187.513 40.4224 188.071 40.67 188.537 41.1652C189.002 41.6604 189.25 42.2484 189.25 43.0222C189.25 43.765 189.002 44.384 188.537 44.8792Z" fill="#FFFEFE"/>
<path d="M200.786 39.2153C200.414 39.2153 200.103 39.5248 200.103 39.8653V44.3221L196.258 39.4629C196.134 39.3082 195.948 39.2153 195.731 39.2153H195.638C195.266 39.2153 194.987 39.5248 194.987 39.8653V46.1481C194.987 46.5195 195.297 46.7981 195.638 46.7981C195.979 46.7981 196.289 46.4886 196.289 46.1481V41.7223L200.134 46.5505C200.259 46.7052 200.445 46.7981 200.662 46.7981H200.755C201.127 46.7981 201.406 46.4886 201.406 46.1481V39.8653C201.437 39.4939 201.127 39.2153 200.786 39.2153Z" fill="#FFFEFE"/>
<path d="M209.779 39.5558C209.686 39.3082 209.437 39.1534 209.158 39.1534H208.972C208.693 39.1534 208.476 39.3082 208.352 39.5558L205.623 45.9005C205.437 46.3338 205.747 46.829 206.243 46.829C206.522 46.829 206.74 46.6743 206.864 46.4267L207.608 44.6935H210.492L211.236 46.4267C211.329 46.6743 211.577 46.829 211.856 46.829H211.918C212.383 46.829 212.724 46.3338 212.538 45.9005L209.779 39.5558ZM208.166 43.3317L209.034 41.2271L209.934 43.3317H208.166Z" fill="#FFFEFE"/>
<path d="M220.942 45.4982H218.12V39.8653C218.12 39.4939 217.81 39.2153 217.469 39.2153H217.407C217.035 39.2153 216.756 39.5248 216.756 39.8653V46.1481C216.756 46.5195 217.066 46.829 217.438 46.829H220.973C221.345 46.829 221.624 46.5195 221.624 46.1791C221.593 45.7767 221.314 45.4982 220.942 45.4982Z" fill="#FFFEFE"/>
<path d="M47.069 17.3645H38.014C33.5486 17.3645 29.9204 13.7433 29.9204 9.28652V0.249083C29.9204 -0.27707 29.4863 -0.710373 28.9591 -0.710373C28.4319 -0.710373 27.9978 -0.27707 27.9978 0.249083V9.28652C27.9978 14.7956 32.4943 19.2525 37.983 19.2525H47.038C47.5651 19.2525 47.9993 18.8192 47.9993 18.293C48.0303 17.7978 47.5961 17.3645 47.069 17.3645Z" fill="#FFFEFE"/>
<path d="M102.484 1.23948H111.539C112.066 1.23948 112.5 0.80618 112.5 0.280028C112.5 -0.246125 112.066 -0.679428 111.539 -0.679428H102.484C96.9642 -0.679428 92.4988 3.80834 92.4988 9.28652C92.4988 14.7956 96.9952 19.2525 102.484 19.2525H111.539C112.066 19.2525 112.5 18.8192 112.5 18.293C112.5 17.7669 112.066 17.3336 111.539 17.3336H102.484C98.0186 17.3336 94.3904 13.7124 94.3904 9.25557C94.3904 4.86065 98.0186 1.23948 102.484 1.23948Z" fill="#FFFEFE"/>
<path d="M70.2645 -0.679428C64.7447 -0.679428 60.2793 3.80834 60.2793 9.28652C60.2793 14.7956 64.7757 19.2525 70.2645 19.2525C70.7917 19.2525 71.2258 18.8192 71.2258 18.293C71.2258 17.7669 70.7917 17.3336 70.2645 17.3336C65.7991 17.3336 62.1709 13.7124 62.1709 9.25557C62.1709 4.79875 65.7991 1.17758 70.2645 1.17758C74.73 1.17758 78.3581 4.79875 78.3581 9.25557V18.2621C78.3581 18.7882 78.7923 19.2215 79.3195 19.2215C79.8466 19.2215 80.2808 18.7882 80.2808 18.2621V9.25557C80.2497 3.80834 75.7843 -0.679428 70.2645 -0.679428Z" fill="#FFFEFE"/>
<path d="M144.688 0.280028C144.688 -0.246125 144.254 -0.679428 143.727 -0.679428C143.2 -0.679428 142.766 -0.246125 142.766 0.280028C142.766 4.73685 139.138 8.35801 134.672 8.35801H126.579V0.280028C126.579 -0.246125 126.144 -0.679428 125.617 -0.679428C125.09 -0.679428 124.656 -0.246125 124.656 0.280028V18.324C124.656 18.8501 125.09 19.2834 125.617 19.2834C126.144 19.2834 126.579 18.8501 126.579 18.324V10.246H134.672C139.138 10.246 142.766 13.8671 142.766 18.324C142.766 18.8501 143.2 19.2834 143.727 19.2834C144.254 19.2834 144.688 18.8501 144.688 18.324C144.688 14.3314 142.332 10.8959 138.921 9.31747C142.332 7.70806 144.688 4.2726 144.688 0.280028Z" fill="#FFFEFE"/>
<path d="M205.437 10.246C205.965 10.246 206.399 9.81268 206.399 9.28652V0.249083C206.399 -0.27707 205.965 -0.710373 205.437 -0.710373C204.91 -0.710373 204.476 -0.27707 204.476 0.249083V9.28652C204.476 9.81268 204.91 10.246 205.437 10.246Z" fill="#FFFEFE"/>
<path d="M214.492 -0.679428C213.965 -0.679428 213.531 -0.246125 213.531 0.280028V9.31747C213.531 13.7743 209.903 17.3955 205.437 17.3955C200.972 17.3955 197.344 13.7743 197.344 9.31747V0.280028C197.344 -0.246125 196.909 -0.679428 196.382 -0.679428C195.855 -0.679428 195.421 -0.246125 195.421 0.280028V9.31747C195.421 14.8266 199.917 19.2834 205.406 19.2834C210.895 19.2834 215.391 14.7956 215.391 9.31747V0.280028C215.422 -0.246125 215.019 -0.679428 214.492 -0.679428Z" fill="#FFFEFE"/>
<path d="M260.852 -0.679428C260.325 -0.679428 259.891 -0.246125 259.891 0.280028V18.324C259.891 18.8501 260.325 19.2834 260.852 19.2834C261.379 19.2834 261.813 18.8501 261.813 18.324V0.280028C261.782 -0.246125 261.379 -0.679428 260.852 -0.679428Z" fill="#FFFEFE"/>
<path d="M246.712 -0.679428C246.184 -0.679428 245.75 -0.246125 245.75 0.280028V8.35801H229.563V0.280028C229.563 -0.246125 229.129 -0.679428 228.602 -0.679428C228.075 -0.679428 227.64 -0.246125 227.64 0.280028V18.324C227.64 18.8501 228.075 19.2834 228.602 19.2834C229.129 19.2834 229.563 18.8501 229.563 18.324V10.246H245.75V18.324C245.75 18.8501 246.184 19.2834 246.712 19.2834C247.239 19.2834 247.673 18.8501 247.673 18.324V0.280028C247.642 -0.246125 247.239 -0.679428 246.712 -0.679428Z" fill="#FFFEFE"/>
<path d="M293.072 -0.679428H274.993C274.466 -0.679428 274.031 -0.246125 274.031 0.280028C274.031 0.80618 274.466 1.23948 274.993 1.23948H283.086V18.324C283.086 18.8501 283.521 19.2834 284.048 19.2834C284.575 19.2834 285.009 18.8501 285.009 18.324V1.23948H293.103C293.63 1.23948 294.064 0.80618 294.064 0.280028C294.064 -0.246125 293.599 -0.679428 293.072 -0.679428Z" fill="#FFFEFE"/>
<path d="M325.291 17.3645C324.764 17.3645 324.33 17.7978 324.33 18.324C324.33 18.8501 324.764 19.2834 325.291 19.2834C325.818 19.2834 326.252 18.8501 326.252 18.324C326.252 17.7978 325.818 17.3645 325.291 17.3645Z" fill="#FFFEFE"/>
<path d="M307.212 1.23948H325.291C325.818 1.23948 326.252 0.80618 326.252 0.280028C326.252 -0.246125 325.818 -0.679428 325.291 -0.679428H307.212C306.685 -0.679428 306.251 -0.246125 306.251 0.280028C306.251 0.80618 306.685 1.23948 307.212 1.23948Z" fill="#FFFEFE"/>
<path d="M321.787 17.3955H307.212C306.685 17.3955 306.251 17.8288 306.251 18.3549C306.251 18.8811 306.685 19.3144 307.212 19.3144H321.787C322.314 19.3144 322.748 18.8811 322.748 18.3549C322.748 17.7978 322.314 17.3955 321.787 17.3955Z" fill="#FFFEFE"/>
<path d="M325.291 8.32707H307.212C306.685 8.32707 306.251 8.76037 306.251 9.28652C306.251 9.81268 306.685 10.246 307.212 10.246H325.291C325.818 10.246 326.252 9.81268 326.252 9.28652C326.252 8.76037 325.818 8.32707 325.291 8.32707Z" fill="#FFFEFE"/>
<path d="M174.52 10.4007H170.52C169.993 10.4007 169.559 10.834 169.559 11.3602C169.559 11.8863 169.993 12.3196 170.52 12.3196H172.691C172.287 13.5886 171.109 14.5171 169.714 14.5171C167.977 14.5171 166.582 13.0934 166.582 11.3602C166.582 9.62698 167.977 8.20327 169.714 8.20327C170.241 8.20327 170.675 7.76997 170.675 7.24382C170.675 6.71766 170.241 6.28436 169.714 6.28436C169.124 6.28436 168.628 5.78916 168.628 5.20111C168.628 4.58211 169.124 4.11785 169.714 4.11785C170.241 4.11785 170.675 3.68455 170.675 3.1584C170.675 2.63224 170.241 2.19894 169.714 2.19894C168.07 2.19894 166.737 3.56075 166.737 5.20111C166.737 5.85106 166.954 6.47006 167.295 6.93431C165.744 7.80092 164.69 9.44128 164.69 11.3292C164.69 14.1147 166.954 16.3741 169.714 16.3741C172.163 16.3741 174.21 14.579 174.644 12.2577C175.109 12.1958 175.45 11.8244 175.45 11.3292C175.45 10.834 175.047 10.4007 174.52 10.4007Z" fill="#FFFEFE"/>
<path d="M15.8109 4.79838C15.8109 1.79622 13.3611 -0.679794 10.3842 -0.679794H10.3221H9.42285H-3.22924C-3.75641 -0.679794 -4.19055 -0.246491 -4.19055 0.279661V9.28615C-4.19055 9.8123 -3.75641 10.2456 -3.22924 10.2456H9.42285H9.60891H10.3842C12.3378 10.2456 13.9193 11.8241 13.9193 13.8049C13.9193 15.7857 12.3378 17.3641 10.3842 17.3641H9.42285H0.771049C0.243878 17.3641 -0.190261 17.7974 -0.190261 18.3236C-0.190261 18.8497 0.243878 19.283 0.771049 19.283H9.42285H10.3842C13.3921 19.283 15.8109 16.838 15.8109 13.8049C15.8109 11.9479 14.8806 10.2766 13.4542 9.28615C14.8806 8.3267 15.8109 6.65539 15.8109 4.79838ZM10.3842 8.35764H9.60891H9.42285H-2.26793V1.27006H9.42285H10.3221H10.3842C12.3378 1.27006 13.9193 2.84852 13.9193 4.82933C13.9193 6.74824 12.3378 8.35764 10.3842 8.35764Z" fill="#FFFEFE"/>
</g>
<defs>
<clipPath id="clip0_90_496">
<rect width="326" height="47" fill="white"/>
</clipPath>
</defs>
</svg>
