<svg width="109" height="35" viewBox="0 0 109 35" fill="none" xmlns="http://www.w3.org/2000/svg">
<path d="M91.5075 19.1583C92.4297 19.1583 93.1734 18.4146 93.1734 17.4924V1.66594C93.1734 0.743722 92.4297 0 91.5075 0C90.5853 0 89.8416 0.743722 89.8416 1.66594V17.4924C89.8416 18.4146 90.5853 19.1583 91.5075 19.1583Z" fill="#D9D9D9"/>
<path d="M107.334 0C106.412 0 105.668 0.743722 105.668 1.66594V17.4924C105.668 25.2866 99.3315 31.6529 91.5075 31.6529C83.6835 31.6529 77.347 25.2866 77.347 17.4924V1.66594C77.347 0.743722 76.6033 0 75.6811 0C74.7589 0 74.0151 0.743722 74.0151 1.66594V17.4924C74.0151 27.131 81.8689 34.9848 91.5075 34.9848C101.146 34.9848 109 27.131 109 17.4924V1.66594C109 0.743722 108.256 0 107.334 0Z" fill="#D9D9D9"/>
<path d="M63.5733 19.3961H56.5823C55.6601 19.3961 54.9164 20.1398 54.9164 21.062C54.9164 21.9842 55.6601 22.728 56.5823 22.728H60.3902C59.6762 24.9591 57.6235 26.5656 55.1841 26.5656C52.1497 26.5656 49.7103 24.0964 49.7103 21.062C49.7103 18.0276 52.1795 15.5585 55.1841 15.5585C56.1063 15.5585 56.85 14.8147 56.85 13.8925C56.85 12.9703 56.1063 12.2266 55.1841 12.2266C54.1429 12.2266 53.2802 11.3639 53.2802 10.2929C53.2802 9.22195 54.1429 8.35922 55.1841 8.35922C56.1063 8.35922 56.85 7.6155 56.85 6.69329C56.85 5.77107 56.1063 5.02734 55.1841 5.02734C52.2985 5.02734 49.9483 7.37751 49.9483 10.2929C49.9483 11.4531 50.335 12.4943 50.93 13.357C48.2229 14.8742 46.3784 17.7301 46.3784 21.062C46.3784 25.9408 50.335 29.9272 55.1841 29.9272C59.468 29.9272 63.0378 26.8036 63.8113 22.6982C64.6145 22.5792 65.2392 21.9247 65.2392 21.062C65.2392 20.1696 64.4955 19.3961 63.5733 19.3961Z" fill="#D9D9D9"/>
<path d="M1.66594 34.9846C2.58602 34.9846 3.33188 34.2255 3.33188 33.289C3.33188 32.3525 2.58602 31.5933 1.66594 31.5933C0.745868 31.5933 0 32.3525 0 33.289C0 34.2255 0.745868 34.9846 1.66594 34.9846Z" fill="#D9D9D9"/>
<path d="M34.9848 9.57916C34.9848 4.28385 30.7009 0 25.4651 0H25.3758H23.7992H1.66594C0.743725 0 0 0.743722 0 1.66594V17.4924C0 18.4146 0.743725 19.1583 1.66594 19.1583H23.7992H24.1264H25.4651C28.8862 19.1583 31.6529 21.9547 31.6529 25.3759C31.6529 28.797 28.8862 31.5934 25.4651 31.5934H23.7992H8.65694C7.73472 31.5934 6.991 32.3371 6.991 33.2593C6.991 34.1815 7.73472 34.9253 8.65694 34.9253H23.7992H25.4651C30.7009 34.9253 34.9848 30.6117 34.9848 25.3461C34.9848 22.0737 33.3486 19.1583 30.8199 17.4329C33.3486 15.7669 34.9848 12.8515 34.9848 9.57916ZM25.4651 15.7967H24.1264H23.7992H3.33188V3.33188H23.7992H25.3758H25.4651C28.8862 3.33188 31.6529 6.12828 31.6529 9.54941C31.6529 12.9705 28.8862 15.7967 25.4651 15.7967Z" fill="#D9D9D9"/>
</svg>
