<svg width="80" height="42" viewBox="0 0 80 42" fill="none" xmlns="http://www.w3.org/2000/svg">
<path d="M0.458516 36.2668H0.436681C0.196506 36.2668 0 36.4633 0 36.7034V40.8519C0 41.0921 0.196506 41.2886 0.436681 41.2886H0.458516C0.698691 41.2886 0.895197 41.0921 0.895197 40.8519V36.7034C0.917032 36.4633 0.720525 36.2668 0.458516 36.2668Z" fill="white"/>
<path d="M8.07853 36.2668C7.83836 36.2668 7.64185 36.4633 7.64185 36.7034V39.651L5.08726 36.4414C4.99993 36.3323 4.86892 36.2668 4.73792 36.2668H4.69425C4.45408 36.2668 4.25757 36.4633 4.25757 36.7034V40.8519C4.25757 41.0921 4.45408 41.2886 4.69425 41.2886C4.93443 41.2886 5.13093 41.0921 5.13093 40.8519V37.9261L7.68552 41.1358C7.77286 41.2449 7.90386 41.3104 8.03487 41.3104H8.07853C8.31871 41.3104 8.51522 41.1139 8.51522 40.8737V36.7253C8.53705 36.4633 8.34054 36.2668 8.07853 36.2668Z" fill="white"/>
<path d="M14.869 36.2668H11.5502C11.31 36.2668 11.1135 36.4633 11.1135 36.7034C11.1135 36.9436 11.31 37.1401 11.5502 37.1401H12.7511V40.8519C12.7511 41.0921 12.9476 41.2886 13.1878 41.2886H13.2314C13.4716 41.2886 13.6681 41.0921 13.6681 40.8519V37.1401H14.869C15.1092 37.1401 15.3057 36.9436 15.3057 36.7034C15.3057 36.4633 15.1092 36.2668 14.869 36.2668Z" fill="white"/>
<path d="M20.5019 40.4371H18.7989V39.2144H20.2399C20.4801 39.2144 20.6766 39.0179 20.6766 38.7777C20.6766 38.5375 20.4801 38.341 20.2399 38.341H18.7989V37.162H20.4364C20.6766 37.162 20.8731 36.9655 20.8731 36.7253C20.8731 36.4851 20.6766 36.2886 20.4364 36.2886H18.3185C18.0783 36.2886 17.8818 36.4851 17.8818 36.7253V40.8738C17.8818 41.114 18.0783 41.3105 18.3185 41.3105H20.5019C20.7421 41.3105 20.9386 41.114 20.9386 40.8738C20.9386 40.6336 20.7421 40.4371 20.5019 40.4371Z" fill="white"/>
<path d="M26.2664 39.2362C26.4848 39.1488 26.6813 38.996 26.8341 38.7995C27.0525 38.5375 27.1835 38.21 27.1835 37.817C27.1835 37.0964 26.8559 36.2449 25.3494 36.2449C25.2621 36.2449 24.738 36.2449 24.3669 36.2449C24.1267 36.2449 23.9302 36.4414 23.9302 36.6816V40.8301C23.9302 41.0702 24.1267 41.2667 24.3669 41.2667H24.3887C24.6289 41.2667 24.8254 41.0702 24.8254 40.8301V39.4327H25.3276L26.6376 41.1357C26.7249 41.2449 26.8559 41.3104 26.9869 41.3104C27.3581 41.3104 27.5765 40.8737 27.3363 40.5899L26.2664 39.2362ZM25.9607 38.341C25.7861 38.472 25.5677 38.5375 25.3276 38.5375H24.8035V37.1401C25.0874 37.1401 25.2621 37.1401 25.2839 37.1401C26.1136 37.1401 26.2228 37.5113 26.2228 37.8388C26.2228 38.0353 26.1354 38.21 25.9607 38.341Z" fill="white"/>
<path d="M34.1923 36.2668C33.9521 36.2668 33.7556 36.4633 33.7556 36.7034V39.651L31.201 36.4414C31.1137 36.3323 30.9827 36.2668 30.8517 36.2668H30.808C30.5678 36.2668 30.3713 36.4633 30.3713 36.7034V40.8519C30.3713 41.0921 30.5678 41.2886 30.808 41.2886C31.0482 41.2886 31.2447 41.0921 31.2447 40.8519V37.9261L33.7993 41.1358C33.8866 41.2449 34.0176 41.3104 34.1486 41.3104H34.1923C34.4325 41.3104 34.629 41.1139 34.629 40.8737V36.7253C34.629 36.4633 34.4325 36.2668 34.1923 36.2668Z" fill="white"/>
<path d="M40.153 36.5069C40.0874 36.3541 39.9346 36.2449 39.7599 36.2449H39.6289C39.4543 36.2449 39.3014 36.3541 39.2359 36.5069L37.4455 40.6991C37.3145 40.9829 37.5329 41.3104 37.8385 41.3104C38.0132 41.3104 38.166 41.2012 38.2316 41.0484L38.7119 39.8912H40.6333L41.1355 41.0484C41.201 41.2012 41.3538 41.3104 41.5285 41.3104H41.5722C41.8778 41.3104 42.0962 40.9829 41.9652 40.6991L40.153 36.5069ZM39.0612 39.0178L39.6508 37.6204L40.2403 39.0178H39.0612Z" fill="white"/>
<path d="M47.3797 36.2668H44.061C43.8208 36.2668 43.6243 36.4633 43.6243 36.7034C43.6243 36.9436 43.8208 37.1401 44.061 37.1401H45.2618V40.8519C45.2618 41.0921 45.4583 41.2886 45.6985 41.2886H45.7422C45.9823 41.2886 46.1789 41.0921 46.1789 40.8519V37.1401H47.3797C47.6199 37.1401 47.8164 36.9436 47.8164 36.7034C47.8164 36.4633 47.6199 36.2668 47.3797 36.2668Z" fill="white"/>
<path d="M51.0044 36.2668H50.9826C50.7424 36.2668 50.5459 36.4633 50.5459 36.7034V40.8519C50.5459 41.0921 50.7424 41.2886 50.9826 41.2886H51.0044C51.2446 41.2886 51.4411 41.0921 51.4411 40.8519V36.7034C51.4411 36.4633 51.2446 36.2668 51.0044 36.2668Z" fill="white"/>
<path d="M56.987 36.2012C56.2446 36.2012 55.6333 36.4632 55.1529 36.9435C54.6726 37.4457 54.4324 38.0571 54.4324 38.7776C54.4324 39.52 54.6726 40.1532 55.1529 40.6335C55.6551 41.1139 56.2664 41.354 56.987 41.354C57.7075 41.354 58.3407 41.1139 58.821 40.6117C59.3014 40.1095 59.5634 39.4981 59.5634 38.7558C59.5634 38.0134 59.3232 37.3802 58.821 36.8999C58.3407 36.4414 57.7293 36.2012 56.987 36.2012ZM58.166 40.0222C57.8603 40.3497 57.4891 40.5025 57.0088 40.5025C56.5503 40.5025 56.1791 40.3497 55.8516 40.0222C55.5241 39.6946 55.3712 39.2798 55.3712 38.7994C55.3712 38.2973 55.5241 37.9042 55.8298 37.5767C56.1354 37.2492 56.5285 37.0964 56.987 37.0964C57.4455 37.0964 57.8167 37.2492 58.1442 37.5767C58.4498 37.9042 58.6027 38.2973 58.6027 38.7994C58.6027 39.2798 58.4717 39.6946 58.166 40.0222Z" fill="white"/>
<path d="M66.2447 36.2668C66.0045 36.2668 65.808 36.4633 65.808 36.7034V39.651L63.2534 36.4414C63.166 36.3323 63.035 36.2668 62.904 36.2668H62.8385C62.5984 36.2668 62.4019 36.4633 62.4019 36.7034V40.8737C62.4019 41.1139 62.5984 41.3104 62.8385 41.3104C63.0787 41.3104 63.2752 41.1139 63.2752 40.8737V37.948L65.8298 41.1576C65.9171 41.2668 66.0481 41.3323 66.1792 41.3323H66.2447C66.4848 41.3323 66.6813 41.1358 66.6813 40.8956V36.7253C66.6813 36.4633 66.4848 36.2668 66.2447 36.2668Z" fill="white"/>
<path d="M72.2052 36.5069C72.1397 36.3541 71.9869 36.2449 71.8122 36.2449H71.6812C71.5065 36.2449 71.3537 36.3541 71.2882 36.5069L69.4978 40.6991C69.3668 40.9829 69.5851 41.3104 69.8908 41.3104C70.0655 41.3104 70.2183 41.2012 70.2838 41.0484L70.7642 39.8912H72.6855L73.1877 41.0484C73.2532 41.2012 73.4061 41.3104 73.5807 41.3104H73.6244C73.9301 41.3104 74.1484 40.9829 74.0174 40.6991L72.2052 36.5069ZM71.1135 39.0178L71.703 37.6204L72.2925 39.0178H71.1135Z" fill="white"/>
<path d="M79.5633 40.4371H77.6856V36.7253C77.6856 36.4851 77.4891 36.2886 77.2489 36.2886H77.2052C76.9651 36.2886 76.7686 36.4851 76.7686 36.7253V40.8738C76.7686 41.114 76.9651 41.3105 77.2052 41.3105H79.5415C79.7817 41.3105 79.9782 41.114 79.9782 40.8738C80 40.6336 79.8035 40.4371 79.5633 40.4371Z" fill="white"/>
<path d="M67.1614 14.0612C67.8383 14.0612 68.3841 13.5153 68.3841 12.8384V1.22271C68.3841 0.545851 67.8383 0 67.1614 0C66.4846 0 65.9387 0.545851 65.9387 1.22271V12.8384C65.9387 13.5153 66.4846 14.0612 67.1614 14.0612Z" fill="white"/>
<path d="M78.7772 0C78.1003 0 77.5545 0.545851 77.5545 1.22271V12.8384C77.5545 18.559 72.9038 23.2315 67.1614 23.2315C61.4191 23.2315 56.7684 18.559 56.7684 12.8384V1.22271C56.7684 0.545851 56.2226 0 55.5457 0C54.8689 0 54.323 0.545851 54.323 1.22271V12.8384C54.323 19.9127 60.0872 25.6769 67.1614 25.6769C74.2357 25.6769 79.9999 19.9127 79.9999 12.8384V1.22271C79.9999 0.545851 79.454 0 78.7772 0Z" fill="white"/>
<path d="M46.6592 14.2357H41.5282C40.8513 14.2357 40.3054 14.7815 40.3054 15.4584C40.3054 16.1352 40.8513 16.6811 41.5282 16.6811H44.3229C43.7989 18.3186 42.2924 19.4977 40.502 19.4977C38.2749 19.4977 36.4845 17.6855 36.4845 15.4584C36.4845 13.2313 38.2967 11.4191 40.502 11.4191C41.1788 11.4191 41.7247 10.8732 41.7247 10.1964C41.7247 9.51951 41.1788 8.97365 40.502 8.97365C39.7378 8.97365 39.1046 8.34047 39.1046 7.55444C39.1046 6.76841 39.7378 6.13522 40.502 6.13522C41.1788 6.13522 41.7247 5.58937 41.7247 4.91251C41.7247 4.23566 41.1788 3.6898 40.502 3.6898C38.384 3.6898 36.6592 5.4147 36.6592 7.55444C36.6592 8.40597 36.943 9.17016 37.3797 9.80335C35.3928 10.9169 34.0391 13.013 34.0391 15.4584C34.0391 19.0392 36.943 21.9649 40.502 21.9649C43.6461 21.9649 46.2662 19.6724 46.8338 16.6593C47.4234 16.5719 47.8819 16.0916 47.8819 15.4584C47.8819 14.8034 47.336 14.2357 46.6592 14.2357Z" fill="white"/>
<path d="M1.22271 25.6768C1.89799 25.6768 2.44542 25.1196 2.44542 24.4323C2.44542 23.7449 1.89799 23.1877 1.22271 23.1877C0.547426 23.1877 0 23.7449 0 24.4323C0 25.1196 0.547426 25.6768 1.22271 25.6768Z" fill="white"/>
<path d="M25.6769 7.03058C25.6769 3.14411 22.5328 0 18.69 0H18.6245H17.4673H1.22271C0.545853 0 0 0.545851 0 1.22271V12.8384C0 13.5153 0.545853 14.0612 1.22271 14.0612H17.4673H17.7075H18.69C21.2009 14.0612 23.2315 16.1136 23.2315 18.6245C23.2315 21.1354 21.2009 23.1878 18.69 23.1878H17.4673H6.35372C5.67686 23.1878 5.13101 23.7337 5.13101 24.4105C5.13101 25.0874 5.67686 25.6332 6.35372 25.6332H17.4673H18.69C22.5328 25.6332 25.6769 22.4673 25.6769 18.6027C25.6769 16.2009 24.476 14.0612 22.6201 12.7948C24.476 11.5721 25.6769 9.43233 25.6769 7.03058ZM18.69 11.5939H17.7075H17.4673H2.44542V2.44542H17.4673H18.6245H18.69C21.2009 2.44542 23.2315 4.49782 23.2315 7.00875C23.2315 9.51967 21.2009 11.5939 18.69 11.5939Z" fill="white"/>
</svg>
