<?xml version="1.0" encoding="utf-8"?><svg viewBox="0 0 56 41" xmlns="http://www.w3.org/2000/svg" xmlns:xlink="http://www.w3.org/1999/xlink"><style>:root>svg{display:none}:root>svg:target{display:block}</style><svg fill="none" viewBox="0 0 56 15" id="arrow-right" xmlns="http://www.w3.org/2000/svg"><path d="M55.707 6.793a1 1 0 0 1 0 1.414l-6.364 6.364a1 1 0 0 1-1.414-1.414L53.586 7.5l-5.657-5.657A1 1 0 0 1 49.343.43l6.364 6.364ZM0 6.5h55v2H0v-2Z" fill="url(#aa)"/><defs><linearGradient id="aa" x1="5.212" y1="7.5" x2="8.926" y2="-5.804" gradientUnits="userSpaceOnUse"><stop stop-color="#fff" stop-opacity=".2"/><stop offset="1" stop-color="#fff" stop-opacity=".5"/></linearGradient></defs></svg><svg fill="none" viewBox="0 0 23 17" id="burger" xmlns="http://www.w3.org/2000/svg"><path stroke="#fff" stroke-linecap="round" d="M.5.5h22M.5 8.5h22M.5 16.5h22"/></svg><svg viewBox="0 0 32 32" id="close" xmlns="http://www.w3.org/2000/svg"><path fill="currentColor" d="M17.414 16 24 9.414 22.586 8 16 14.586 9.414 8 8 9.414 14.586 16 8 22.586 9.414 24 16 17.414 22.586 24 24 22.586z"/></svg><svg fill="none" viewBox="0 0 41 41" id="inst" xmlns="http://www.w3.org/2000/svg"><path d="M13.325 3.417h14.35c5.467 0 9.909 4.441 9.909 9.908v14.35a9.909 9.909 0 0 1-9.909 9.908h-14.35c-5.466 0-9.908-4.441-9.908-9.908v-14.35a9.908 9.908 0 0 1 9.908-9.909Zm-.341 3.416a6.15 6.15 0 0 0-6.15 6.15v15.034c0 3.4 2.75 6.15 6.15 6.15h15.033a6.15 6.15 0 0 0 6.15-6.15V12.982c0-3.4-2.75-6.15-6.15-6.15H12.984Zm16.485 2.563a2.135 2.135 0 1 1 0 4.27 2.135 2.135 0 0 1 0-4.27ZM20.5 11.958a8.542 8.542 0 1 1 0 17.084 8.542 8.542 0 0 1 0-17.084Zm0 3.417a5.125 5.125 0 1 0 0 10.25 5.125 5.125 0 0 0 0-10.25Z" fill="#FFFEFE"/></svg><svg fill="none" viewBox="0 0 41 41" id="tg" xmlns="http://www.w3.org/2000/svg"><path d="M20.5 3.417c-9.43 0-17.083 7.653-17.083 17.083S11.07 37.583 20.5 37.583 37.584 29.93 37.584 20.5 29.93 3.416 20.5 3.416Zm7.927 11.616c-.256 2.7-1.367 9.26-1.93 12.283-.24 1.281-.718 1.708-1.162 1.76-.99.085-1.743-.65-2.7-1.282-1.503-.99-2.357-1.605-3.809-2.562-1.691-1.11-.598-1.726.376-2.716.256-.257 4.63-4.237 4.715-4.596a.341.341 0 0 0-.085-.307c-.103-.086-.24-.052-.36-.034-.153.034-2.545 1.622-7.208 4.766-.684.461-1.299.7-1.845.683-.615-.017-1.777-.341-2.648-.632-1.077-.342-1.914-.53-1.845-1.127.034-.308.461-.615 1.264-.94 4.988-2.17 8.302-3.605 9.96-4.288 4.749-1.982 5.722-2.323 6.372-2.323.136 0 .46.034.666.205.17.136.222.324.239.461-.017.102.017.41 0 .65Z" fill="#FFFEFE"/></svg><svg fill="none" viewBox="0 0 41 41" id="vk" xmlns="http://www.w3.org/2000/svg"><path d="M7.277 7.277C5.125 9.45 5.125 12.925 5.125 19.886v1.23c0 6.95 0 10.424 2.152 12.607 2.173 2.153 5.648 2.153 12.608 2.153h1.23c6.95 0 10.424 0 12.607-2.153 2.153-2.173 2.153-5.647 2.153-12.607v-1.23c0-6.95 0-10.424-2.153-12.608-2.173-2.152-5.647-2.152-12.607-2.152h-1.23c-6.95 0-10.424 0-12.608 2.152Zm3.035 7.206h3.526c.112 5.863 2.695 8.344 4.745 8.856v-8.856h3.311v5.053c2.02-.215 4.151-2.521 4.869-5.063h3.3a9.77 9.77 0 0 1-4.49 6.386 10.113 10.113 0 0 1 5.259 6.416h-3.639c-.779-2.429-2.726-4.315-5.299-4.571v4.571h-.41c-7.011 0-11.009-4.797-11.173-12.792Z" fill="#FFFEFE"/></svg></svg>