<svg width="45" height="44" viewBox="0 0 45 44" fill="none" xmlns="http://www.w3.org/2000/svg">
<path d="M29.0948 7.82167C26.6989 5.03158 24.0024 2.51917 21.055 0.330884C20.7941 0.146589 20.4832 0.0477295 20.1647 0.0477295C19.8461 0.0477295 19.5353 0.146589 19.2744 0.330884C16.3324 2.52008 13.6411 5.03246 11.25 7.82167C5.91789 13.9962 3.10345 20.5052 3.10345 26.6464C3.10345 31.2111 4.90179 35.5889 8.10284 38.8166C11.3039 42.0443 15.6454 43.8576 20.1724 43.8576C24.6994 43.8576 29.041 42.0443 32.242 38.8166C35.4431 35.5889 37.2414 31.2111 37.2414 26.6464C37.2414 20.5052 34.4269 13.9962 29.0948 7.82167ZM31.0054 28.4732C30.603 30.7394 29.5217 32.8269 27.9071 34.4546C26.2924 36.0824 24.2219 37.1723 21.9744 37.5775C21.8916 37.5907 21.808 37.5979 21.7241 37.599C21.3349 37.5989 20.9599 37.4513 20.6736 37.1855C20.3872 36.9197 20.2104 36.555 20.1782 36.1639C20.1459 35.7728 20.2607 35.3837 20.4996 35.0739C20.7385 34.764 21.0842 34.5561 21.4681 34.4912C24.6821 33.9455 27.4093 31.1957 27.9543 27.949C28.0233 27.5397 28.2506 27.1748 28.5863 26.9346C28.9221 26.6944 29.3387 26.5984 29.7446 26.6679C30.1505 26.7375 30.5124 26.9667 30.7506 27.3052C30.9889 27.6438 31.084 28.0639 31.0151 28.4732H31.0054Z" fill="#56A9BF"/>
</svg>
