<svg width="58" height="58" viewBox="0 0 58 58" fill="none" xmlns="http://www.w3.org/2000/svg">
<path d="M29 53.1667C31.5361 53.1667 34.0079 52.3688 36.0653 50.8859C38.1226 49.403 39.6613 47.3104 40.4633 44.9045C41.2653 42.4985 41.2899 39.9012 40.5337 37.4805C39.7775 35.0598 38.2789 32.9384 36.25 31.4167V12.0834C36.25 9.83104 36.25 8.70487 35.8827 7.81554C35.3921 6.63178 34.4516 5.69125 33.2679 5.20071C32.3834 4.83337 31.2524 4.83337 29 4.83337C26.7477 4.83337 25.6191 4.83337 24.7322 5.20071C23.5484 5.69125 22.6079 6.63178 22.1174 7.81554C21.75 8.70487 21.75 9.83104 21.75 12.0834V31.4167C19.7212 32.9384 18.2225 35.0598 17.4663 37.4805C16.7101 39.9012 16.7348 42.4985 17.5368 44.9045C18.3387 47.3104 19.8774 49.403 21.9348 50.8859C23.9921 52.3688 26.4639 53.1667 29 53.1667Z" stroke="#56A9BF" stroke-width="1.5" stroke-linecap="round" stroke-linejoin="round"/>
<path d="M29 36.25C27.7181 36.25 26.4888 36.7593 25.5823 37.6657C24.6759 38.5721 24.1667 39.8015 24.1667 41.0834C24.1667 42.3653 24.6759 43.5946 25.5823 44.5011C26.4888 45.4075 27.7181 45.9167 29 45.9167C30.2819 45.9167 31.5113 45.4075 32.4177 44.5011C33.3241 43.5946 33.8334 42.3653 33.8334 41.0834C33.8334 39.8015 33.3241 38.5721 32.4177 37.6657C31.5113 36.7593 30.2819 36.25 29 36.25ZM29 36.25V19.3334" stroke="#56A9BF" stroke-width="1.5" stroke-linecap="round" stroke-linejoin="round"/>
</svg>
