<svg width="59" height="59" viewBox="0 0 59 59" fill="none" xmlns="http://www.w3.org/2000/svg">
<g clip-path="url(#clip0_149_576)">
<path d="M12.5842 58.4199C12.3991 58.2369 12.2522 58.0191 12.1519 57.779C12.0516 57.5389 12 57.2813 12 57.0211C12 56.7608 12.0516 56.5032 12.1519 56.2631C12.2522 56.023 12.3991 55.8052 12.5842 55.6223L22.8256 45.3833C23.098 45.0958 23.4504 44.8968 23.8373 44.8123C24.2242 44.7277 24.6275 44.7614 24.995 44.9091C25.3624 45.0568 25.677 45.3115 25.8977 45.6403C26.1185 45.969 26.2353 46.3566 26.2329 46.7526C26.2335 47.0196 26.1798 47.2839 26.075 47.5295C25.9702 47.775 25.8165 47.9967 25.6232 48.1809L15.3843 58.4223C15.2014 58.6074 14.9835 58.7543 14.7434 58.8546C14.5033 58.9549 14.2457 59.0065 13.9855 59.0065C13.7253 59.0065 13.4676 58.9549 13.2275 58.8546C12.9874 58.7543 12.7696 58.6074 12.5867 58.4223L12.5842 58.4199ZM33.4186 48.734C33.2335 48.5511 33.0866 48.3333 32.9863 48.0932C32.886 47.8531 32.8344 47.5954 32.8344 47.3352C32.8344 47.075 32.886 46.8174 32.9863 46.5773C33.0866 46.3372 33.2335 46.1194 33.4186 45.9364L40.9386 38.4238H20.0428L9.72272 48.7365C9.53903 48.9202 9.32096 49.0659 9.08095 49.1653C8.84095 49.2647 8.58371 49.3159 8.32393 49.3159C8.06415 49.3159 7.80692 49.2647 7.56691 49.1653C7.32691 49.0659 7.10883 48.9202 6.92514 48.7365C6.74145 48.5528 6.59574 48.3347 6.49632 48.0947C6.39691 47.8547 6.34574 47.5975 6.34574 47.3377C6.34574 47.0779 6.39691 46.8207 6.49632 46.5807C6.59574 46.3407 6.74145 46.1226 6.92514 45.9389L14.4476 38.4164H14.1158C10.3303 38.4164 6.69989 36.9126 4.02317 34.2359C1.34645 31.5592 -0.157318 27.9288 -0.157318 24.1433C-0.157318 20.3579 1.34645 16.7274 4.02317 14.0507C6.69989 11.374 10.3303 9.87023 14.1158 9.87023H14.2805H14.2731C14.4944 9.87023 14.7156 9.88743 14.9344 9.89727C18.2876 3.9481 24.5637 -0.00244078 31.7641 -0.00244078C34.2925 -0.00308662 36.7963 0.494402 39.1324 1.46161C41.4685 2.42881 43.5911 3.84678 45.3791 5.63452C47.1671 7.42225 48.5853 9.54473 49.5528 11.8807C50.5203 14.2167 51.0181 16.7204 51.0178 19.2488V19.2856C53.1256 19.805 54.9988 21.015 56.339 22.7227C57.6791 24.4304 58.4091 26.5376 58.4125 28.7084C58.4125 29.9823 58.1616 31.2438 57.6741 32.4207C57.1866 33.5976 56.472 34.667 55.5712 35.5678C54.6705 36.4686 53.6011 37.1831 52.4241 37.6706C51.2472 38.1581 49.9858 38.409 48.7119 38.409H46.5387L36.2186 48.7291C36.0357 48.9142 35.8179 49.0611 35.5778 49.1614C35.3377 49.2617 35.0801 49.3133 34.8199 49.3133C34.5596 49.3133 34.302 49.2617 34.0619 49.1614C33.8218 49.0611 33.604 48.9142 33.4211 48.7291L33.4186 48.734ZM3.95547 24.1409C3.95743 26.8762 5.04475 29.4991 6.97872 31.4335C8.9127 33.3679 11.5353 34.4559 14.2706 34.4585H48.6971C50.2221 34.4582 51.6846 33.852 52.7627 32.7735C53.8408 31.6949 54.4463 30.2322 54.446 28.7072C54.4456 27.1822 53.8395 25.7198 52.7609 24.6417C51.6824 23.5636 50.2197 22.9581 48.6947 22.9584C47.2762 22.9584 45.9807 23.4722 44.9777 24.3203L44.9851 24.3129C44.5836 24.6416 44.0693 24.7996 43.5525 24.7531C43.0358 24.7067 42.5579 24.4594 42.2215 24.0644C41.8852 23.6694 41.7171 23.1583 41.7535 22.6407C41.7899 22.1232 42.0278 21.6406 42.4161 21.2966L42.4186 21.2941C43.7185 20.1878 45.2902 19.4486 46.9714 19.1529L47.0304 19.1431C47.0012 15.8874 45.9337 12.7261 43.9831 10.1193C42.0326 7.51248 39.3009 5.5963 36.1858 4.64973C33.0707 3.70315 29.7348 3.77558 26.6637 4.85649C23.5926 5.93739 20.9466 7.97034 19.1111 10.6594L19.0767 10.711C20.572 11.2436 21.9678 12.0221 23.2067 13.0144L23.1796 12.9923C23.5891 13.3209 23.8512 13.7987 23.9084 14.3206C23.9656 14.8425 23.8131 15.3657 23.4845 15.7751C23.1559 16.1846 22.6781 16.4467 22.1562 16.5039C21.6343 16.5611 21.1111 16.4086 20.7016 16.08L20.7041 16.0824C18.8914 14.6161 16.6292 13.8184 14.2977 13.8232H14.2706H14.2731C11.5364 13.8239 8.91199 14.911 6.97642 16.8456C5.04085 18.7803 3.95251 21.4042 3.95056 24.1409H3.95547Z" fill="#56A9BF"/>
</g>
<defs>
<clipPath id="clip0_149_576">
<rect width="59" height="59" fill="white"/>
</clipPath>
</defs>
</svg>
