<svg width="58" height="58" viewBox="0 0 58 58" fill="none" xmlns="http://www.w3.org/2000/svg">
<path d="M29 7.25V10.875M41.0833 31.4167C41.0833 28.212 39.8103 25.1385 37.5442 22.8725C35.2782 20.6064 32.2047 19.3333 29 19.3333C25.7953 19.3333 22.7219 20.6064 20.4558 22.8725C18.1897 25.1385 16.9167 28.212 16.9167 31.4167M14.471 16.8925L11.9093 14.3284M53.1667 31.4167H49.5417M8.45834 31.4167H4.83334M46.0858 14.3284L43.5242 16.8901M15.7083 38.6667V45.9167C15.7083 48.1956 15.7083 49.3338 16.4164 50.0419C17.1245 50.75 18.2628 50.75 20.5417 50.75C22.8206 50.75 23.9588 50.75 24.6669 50.0419C25.375 49.3338 25.375 48.1956 25.375 45.9167V38.6667M32.625 38.6667L37.4583 50.75L42.2917 38.6667" stroke="#56A9BF" stroke-width="1.5" stroke-linecap="round" stroke-linejoin="round"/>
</svg>
