<svg width="41" height="41" fill="none" xmlns="http://www.w3.org/2000/svg"><path d="M13.325 3.417h14.35c5.467 0 9.909 4.441 9.909 9.908v14.35a9.909 9.909 0 01-9.909 9.908h-14.35c-5.466 0-9.908-4.441-9.908-9.908v-14.35a9.908 9.908 0 019.908-9.909zm-.341 3.416a6.15 6.15 0 00-6.15 6.15v15.034c0 3.4 2.75 6.15 6.15 6.15h15.033a6.15 6.15 0 006.15-6.15V12.982c0-3.4-2.75-6.15-6.15-6.15H12.984zm16.485 2.563a2.135 2.135 0 110 4.27 2.135 2.135 0 010-4.27zM20.5 11.958a8.542 8.542 0 110 17.084 8.542 8.542 0 010-17.084zm0 3.417a5.125 5.125 0 100 10.25 5.125 5.125 0 000-10.25z" fill="#FFFEFE"/></svg>