<svg width="41" height="41" fill="none" xmlns="http://www.w3.org/2000/svg"><path d="M20.5 3.417c-9.43 0-17.083 7.653-17.083 17.083S11.07 37.583 20.5 37.583 37.584 29.93 37.584 20.5 29.93 3.416 20.5 3.416zm7.927 11.616c-.256 2.7-1.367 9.26-1.93 12.283-.24 1.281-.718 1.708-1.162 1.76-.99.085-1.743-.65-2.7-1.282-1.503-.99-2.357-1.605-3.809-2.562-1.691-1.11-.598-1.726.376-2.716.256-.257 4.63-4.237 4.715-4.596a.341.341 0 00-.085-.307c-.103-.086-.24-.052-.36-.034-.153.034-2.545 1.622-7.208 4.766-.684.461-1.299.7-1.845.683-.615-.017-1.777-.341-2.648-.632-1.077-.342-1.914-.53-1.845-1.127.034-.308.461-.615 1.264-.94 4.988-2.17 8.302-3.605 9.96-4.288 4.749-1.982 5.722-2.323 6.372-2.323.136 0 .46.034.666.205.17.136.222.324.239.461-.017.102.017.41 0 .65z" fill="#FFFEFE"/></svg>