<svg width="41" height="41" fill="none" xmlns="http://www.w3.org/2000/svg"><path d="M7.277 7.277C5.125 9.45 5.125 12.925 5.125 19.886v1.23c0 6.95 0 10.424 2.152 12.607 2.173 2.153 5.648 2.153 12.608 2.153h1.23c6.95 0 10.424 0 12.607-2.153 2.153-2.173 2.153-5.647 2.153-12.607v-1.23c0-6.95 0-10.424-2.153-12.608-2.173-2.152-5.647-2.152-12.607-2.152h-1.23c-6.95 0-10.424 0-12.608 2.152zm3.035 7.206h3.526c.112 5.863 2.695 8.344 4.745 8.856v-8.856h3.311v5.053c2.02-.215 4.151-2.521 4.869-5.063h3.3a9.77 9.77 0 01-4.49 6.386 10.113 10.113 0 015.259 6.416h-3.639c-.779-2.429-2.726-4.315-5.299-4.571v4.571h-.41c-7.011 0-11.009-4.797-11.173-12.792z" fill="#FFFEFE"/></svg>